<svg width="129" height="156" viewBox="0 0 129 156" fill="none" xmlns="http://www.w3.org/2000/svg">
<path d="M128.993 87.1164C128.993 108.847 128.993 130.578 128.993 152.309C128.993 153.521 129.136 155.302 128.348 155.872C127.488 156.442 126.27 155.017 125.338 154.376C113.657 146.324 101.976 138.273 90.4383 130.08C88.3601 128.655 86.2819 128.085 83.8454 128.085C63.4215 128.156 43.0693 128.085 22.6454 128.085C9.67446 128.085 0 118.537 0 105.712C0 77.9252 0 50.2093 0.0716627 22.4222C0.0716627 9.95356 9.53114 0.192427 22.0721 0.121178C50.3072 -0.0213208 78.614 -0.0213208 106.849 0.0499284C119.462 0.121178 128.921 9.81106 128.921 22.2797C128.993 43.8682 128.921 65.5279 128.921 87.1164H128.993ZM61.5583 105.071C69.0112 105.142 76.0341 103.931 82.0538 99.1575C83.0571 98.3737 84.347 97.59 84.347 96.165C84.4187 92.7451 84.4903 89.3251 84.2753 85.9051C84.132 83.9102 82.8421 83.2689 80.9788 84.4802C80.1189 85.0502 79.2589 85.6914 78.399 86.2614C68.2945 93.5288 50.3789 93.3151 45.1475 76.2153C42.8543 68.6629 43.0693 60.9679 45.1475 53.4868C48.9456 40.2344 64.2814 34.392 75.8908 41.6594C76.9657 42.3719 77.969 43.2982 78.9723 44.0819C79.9756 44.8656 81.0505 45.2931 82.2688 44.7944C83.6304 44.2956 83.8454 43.1557 83.8454 41.8732C83.8454 39.9494 83.702 38.097 83.917 36.1732C84.2753 32.1833 82.2688 29.6896 78.829 28.1933C59.1934 19.7859 37.0496 25.2009 28.2351 48.7843C24.2937 59.258 25.2253 70.3728 27.8768 81.2027C30.2417 91.1063 35.903 98.3737 45.4342 102.364C50.5939 104.501 56.0402 105.071 61.5583 105.071ZM92.2299 63.6042C92.0866 60.6117 89.5784 58.3317 86.5685 58.403C83.5587 58.4742 81.2655 60.8967 81.3372 63.9604C81.4805 66.9529 83.9887 69.3753 86.8552 69.2328C89.865 69.0903 92.3016 66.4541 92.2299 63.6042ZM62.7765 63.8179C62.7765 60.9679 60.1967 58.403 57.2585 58.403C54.3203 58.403 51.7405 60.8967 51.7405 63.7467C51.7405 66.5254 54.392 69.1616 57.2585 69.2328C60.0533 69.3041 62.7765 66.6679 62.7765 63.8179ZM77.3957 63.9604C77.4674 60.8254 75.2458 58.4742 72.1643 58.403C69.2262 58.3317 66.718 60.8254 66.718 63.8179C66.718 66.6679 68.9395 69.0191 71.806 69.2328C74.7442 69.3753 77.324 66.9529 77.3957 63.9604Z" fill="#002DE3"/>
</svg>
