<svg width="240" height="200" viewBox="0 0 240 200" fill="none" xmlns="http://www.w3.org/2000/svg">
<path d="M205.108 195.121C205.141 195.138 205.17 195.154 205.196 195.169C205.17 195.184 205.141 195.199 205.108 195.216C204.835 195.354 204.398 195.503 203.78 195.657C202.552 195.964 200.721 196.265 198.337 196.553C193.574 197.129 186.67 197.649 178.126 198.085C161.042 198.959 137.434 199.5 111.353 199.5C85.2721 199.5 61.6641 198.959 44.5798 198.085C36.0359 197.649 29.1322 197.129 24.3691 196.553C21.9845 196.265 20.1534 195.964 18.9258 195.657C18.3081 195.503 17.8708 195.354 17.598 195.216C17.5647 195.199 17.5354 195.184 17.5097 195.169C17.5354 195.154 17.5647 195.138 17.598 195.121C17.8708 194.984 18.3081 194.835 18.9258 194.68C20.1534 194.374 21.9845 194.073 24.3691 193.785C29.1322 193.209 36.0359 192.689 44.5798 192.252C61.6641 191.379 85.2721 190.838 111.353 190.838C137.434 190.838 161.042 191.379 178.126 192.252C186.67 192.689 193.574 193.209 198.337 193.785C200.721 194.073 202.552 194.374 203.78 194.68C204.398 194.835 204.835 194.984 205.108 195.121Z" fill="#F2F2F2"/>
<path d="M205.108 195.121C205.141 195.138 205.17 195.154 205.196 195.169C205.17 195.184 205.141 195.199 205.108 195.216C204.835 195.354 204.398 195.503 203.78 195.657C202.552 195.964 200.721 196.265 198.337 196.553C193.574 197.129 186.67 197.649 178.126 198.085C161.042 198.959 137.434 199.5 111.353 199.5C85.2721 199.5 61.6641 198.959 44.5798 198.085C36.0359 197.649 29.1322 197.129 24.3691 196.553C21.9845 196.265 20.1534 195.964 18.9258 195.657C18.3081 195.503 17.8708 195.354 17.598 195.216C17.5647 195.199 17.5354 195.184 17.5097 195.169C17.5354 195.154 17.5647 195.138 17.598 195.121C17.8708 194.984 18.3081 194.835 18.9258 194.68C20.1534 194.374 21.9845 194.073 24.3691 193.785C29.1322 193.209 36.0359 192.689 44.5798 192.252C61.6641 191.379 85.2721 190.838 111.353 190.838C137.434 190.838 161.042 191.379 178.126 192.252C186.67 192.689 193.574 193.209 198.337 193.785C200.721 194.073 202.552 194.374 203.78 194.68C204.398 194.835 204.835 194.984 205.108 195.121Z" stroke="black"/>
<path d="M205.108 195.121C205.141 195.138 205.17 195.154 205.196 195.169C205.17 195.184 205.141 195.199 205.108 195.216C204.835 195.354 204.398 195.503 203.78 195.657C202.552 195.964 200.721 196.265 198.337 196.553C193.574 197.129 186.67 197.649 178.126 198.085C161.042 198.959 137.434 199.5 111.353 199.5C85.2721 199.5 61.6641 198.959 44.5798 198.085C36.0359 197.649 29.1322 197.129 24.3691 196.553C21.9845 196.265 20.1534 195.964 18.9258 195.657C18.3081 195.503 17.8708 195.354 17.598 195.216C17.5647 195.199 17.5354 195.184 17.5097 195.169C17.5354 195.154 17.5647 195.138 17.598 195.121C17.8708 194.984 18.3081 194.835 18.9258 194.68C20.1534 194.374 21.9845 194.073 24.3691 193.785C29.1322 193.209 36.0359 192.689 44.5798 192.252C61.6641 191.379 85.2721 190.838 111.353 190.838C137.434 190.838 161.042 191.379 178.126 192.252C186.67 192.689 193.574 193.209 198.337 193.785C200.721 194.073 202.552 194.374 203.78 194.68C204.398 194.835 204.835 194.984 205.108 195.121Z" stroke="black" stroke-opacity="0.2"/>
<path d="M164.972 46.4167V46.9167H165.472H166.045L166.045 66.8444H165.472H164.972V67.3444V178.31C164.972 182.69 163.232 186.891 160.134 189.988C157.037 193.086 152.836 194.826 148.456 194.826H86.1703C81.7902 194.826 77.5894 193.086 74.4922 189.988C71.3949 186.891 69.6549 182.69 69.6549 178.309V17.0162C69.655 12.6358 71.395 8.43482 74.4922 5.33745C77.5895 2.24007 81.7902 0.499992 86.1704 0.5H148.456C152.836 0.500005 157.037 2.2401 160.134 5.33749C163.232 8.43487 164.972 12.6358 164.972 17.0162V46.4167Z" fill="#3F3D56"/>
<path d="M164.972 46.4167V46.9167H165.472H166.045L166.045 66.8444H165.472H164.972V67.3444V178.31C164.972 182.69 163.232 186.891 160.134 189.988C157.037 193.086 152.836 194.826 148.456 194.826H86.1703C81.7902 194.826 77.5894 193.086 74.4922 189.988C71.3949 186.891 69.6549 182.69 69.6549 178.309V17.0162C69.655 12.6358 71.395 8.43482 74.4922 5.33745C77.5895 2.24007 81.7902 0.499992 86.1704 0.5H148.456C152.836 0.500005 157.037 2.2401 160.134 5.33749C163.232 8.43487 164.972 12.6358 164.972 17.0162V46.4167Z" stroke="black"/>
<path d="M164.972 46.4167V46.9167H165.472H166.045L166.045 66.8444H165.472H164.972V67.3444V178.31C164.972 182.69 163.232 186.891 160.134 189.988C157.037 193.086 152.836 194.826 148.456 194.826H86.1703C81.7902 194.826 77.5894 193.086 74.4922 189.988C71.3949 186.891 69.6549 182.69 69.6549 178.309V17.0162C69.655 12.6358 71.395 8.43482 74.4922 5.33745C77.5895 2.24007 81.7902 0.499992 86.1704 0.5H148.456C152.836 0.500005 157.037 2.2401 160.134 5.33749C163.232 8.43487 164.972 12.6358 164.972 17.0162V46.4167Z" stroke="black" stroke-opacity="0.2"/>
<path d="M99.7399 13.2441H99.7403H135.423H135.424C136.495 13.2433 137.55 12.9791 138.496 12.4748C139.442 11.9706 140.249 11.2416 140.847 10.3521C141.445 9.46267 141.815 8.43991 141.925 7.37382C142.009 6.54992 141.937 5.71966 141.713 4.92676H149.143C152.38 4.92682 155.485 6.21304 157.774 8.50249C160.064 10.7919 161.35 13.8971 161.35 17.1349V178.191C161.35 181.429 160.064 184.534 157.774 186.823C155.485 189.113 152.38 190.399 149.143 190.399H86.5578C83.3202 190.399 80.2152 189.113 77.9259 186.823C75.6365 184.534 74.3504 181.429 74.3503 178.191V17.1349C74.3504 13.8971 75.6365 10.7919 77.9259 8.50249C80.2152 6.21304 83.3202 4.92682 86.5578 4.92676H93.4505C93.2267 5.71966 93.1541 6.54993 93.239 7.37382C93.3488 8.43991 93.7189 9.46269 94.3168 10.3522C94.9146 11.2416 95.7219 11.9706 96.6675 12.4748C97.6132 12.9791 98.6682 13.2433 99.7399 13.2441Z" fill="white"/>
<path d="M99.7399 13.2441H99.7403H135.423H135.424C136.495 13.2433 137.55 12.9791 138.496 12.4748C139.442 11.9706 140.249 11.2416 140.847 10.3521C141.445 9.46267 141.815 8.43991 141.925 7.37382C142.009 6.54992 141.937 5.71966 141.713 4.92676H149.143C152.38 4.92682 155.485 6.21304 157.774 8.50249C160.064 10.7919 161.35 13.8971 161.35 17.1349V178.191C161.35 181.429 160.064 184.534 157.774 186.823C155.485 189.113 152.38 190.399 149.143 190.399H86.5578C83.3202 190.399 80.2152 189.113 77.9259 186.823C75.6365 184.534 74.3504 181.429 74.3503 178.191V17.1349C74.3504 13.8971 75.6365 10.7919 77.9259 8.50249C80.2152 6.21304 83.3202 4.92682 86.5578 4.92676H93.4505C93.2267 5.71966 93.1541 6.54993 93.239 7.37382C93.3488 8.43991 93.7189 9.46269 94.3168 10.3522C94.9146 11.2416 95.7219 11.9706 96.6675 12.4748C97.6132 12.9791 98.6682 13.2433 99.7399 13.2441Z" stroke="black"/>
<path d="M99.7399 13.2441H99.7403H135.423H135.424C136.495 13.2433 137.55 12.9791 138.496 12.4748C139.442 11.9706 140.249 11.2416 140.847 10.3521C141.445 9.46267 141.815 8.43991 141.925 7.37382C142.009 6.54992 141.937 5.71966 141.713 4.92676H149.143C152.38 4.92682 155.485 6.21304 157.774 8.50249C160.064 10.7919 161.35 13.8971 161.35 17.1349V178.191C161.35 181.429 160.064 184.534 157.774 186.823C155.485 189.113 152.38 190.399 149.143 190.399H86.5578C83.3202 190.399 80.2152 189.113 77.9259 186.823C75.6365 184.534 74.3504 181.429 74.3503 178.191V17.1349C74.3504 13.8971 75.6365 10.7919 77.9259 8.50249C80.2152 6.21304 83.3202 4.92682 86.5578 4.92676H93.4505C93.2267 5.71966 93.1541 6.54993 93.239 7.37382C93.3488 8.43991 93.7189 9.46269 94.3168 10.3522C94.9146 11.2416 95.7219 11.9706 96.6675 12.4748C97.6132 12.9791 98.6682 13.2433 99.7399 13.2441Z" stroke="black" stroke-opacity="0.2"/>
<path d="M141.942 86.3994C141.701 86.5178 141.458 86.6324 141.213 86.7431L141.213 86.7432C140.83 86.9163 140.441 87.079 140.045 87.2312C139.9 87.2866 139.753 87.342 139.603 87.398C138.441 87.8196 137.246 88.1488 136.032 88.3826L136.03 88.383C135.43 88.501 134.821 88.5937 134.204 88.661L134.202 88.6612C133.693 88.719 133.178 88.7602 132.657 88.7848L132.656 88.7848C132.287 88.8031 131.917 88.811 131.543 88.811H131.542C130.065 88.8117 128.59 88.6735 127.138 88.3984L127.138 88.3984L127.134 88.3976C126.759 88.33 126.391 88.2491 126.019 88.1594L126.018 88.1592C124.226 87.7297 122.491 87.0894 120.85 86.2516L120.85 86.2516L120.846 86.2497C120.75 86.2016 120.657 86.153 120.56 86.1019C120.509 86.0756 120.458 86.0485 120.404 86.0206C120.357 85.9958 120.311 85.9708 120.264 85.9455C121.471 84.4596 122.976 83.2424 124.681 82.372C126.399 81.4949 128.284 80.9898 130.211 80.8896C132.137 80.7894 134.064 81.0965 135.864 81.7907C137.664 82.4849 139.298 83.5507 140.659 84.9186L140.659 84.9189C141.121 85.382 141.549 85.8767 141.942 86.3994Z" fill="#FFA934"/>
<path d="M141.942 86.3994C141.701 86.5178 141.458 86.6324 141.213 86.7431L141.213 86.7432C140.83 86.9163 140.441 87.079 140.045 87.2312C139.9 87.2866 139.753 87.342 139.603 87.398C138.441 87.8196 137.246 88.1488 136.032 88.3826L136.03 88.383C135.43 88.501 134.821 88.5937 134.204 88.661L134.202 88.6612C133.693 88.719 133.178 88.7602 132.657 88.7848L132.656 88.7848C132.287 88.8031 131.917 88.811 131.543 88.811H131.542C130.065 88.8117 128.59 88.6735 127.138 88.3984L127.138 88.3984L127.134 88.3976C126.759 88.33 126.391 88.2491 126.019 88.1594L126.018 88.1592C124.226 87.7297 122.491 87.0894 120.85 86.2516L120.85 86.2516L120.846 86.2497C120.75 86.2016 120.657 86.153 120.56 86.1019C120.509 86.0756 120.458 86.0485 120.404 86.0206C120.357 85.9958 120.311 85.9708 120.264 85.9455C121.471 84.4596 122.976 83.2424 124.681 82.372C126.399 81.4949 128.284 80.9898 130.211 80.8896C132.137 80.7894 134.064 81.0965 135.864 81.7907C137.664 82.4849 139.298 83.5507 140.659 84.9186L140.659 84.9189C141.121 85.382 141.549 85.8767 141.942 86.3994Z" stroke="black"/>
<path d="M141.942 86.3994C141.701 86.5178 141.458 86.6324 141.213 86.7431L141.213 86.7432C140.83 86.9163 140.441 87.079 140.045 87.2312C139.9 87.2866 139.753 87.342 139.603 87.398C138.441 87.8196 137.246 88.1488 136.032 88.3826L136.03 88.383C135.43 88.501 134.821 88.5937 134.204 88.661L134.202 88.6612C133.693 88.719 133.178 88.7602 132.657 88.7848L132.656 88.7848C132.287 88.8031 131.917 88.811 131.543 88.811H131.542C130.065 88.8117 128.59 88.6735 127.138 88.3984L127.138 88.3984L127.134 88.3976C126.759 88.33 126.391 88.2491 126.019 88.1594L126.018 88.1592C124.226 87.7297 122.491 87.0894 120.85 86.2516L120.85 86.2516L120.846 86.2497C120.75 86.2016 120.657 86.153 120.56 86.1019C120.509 86.0756 120.458 86.0485 120.404 86.0206C120.357 85.9958 120.311 85.9708 120.264 85.9455C121.471 84.4596 122.976 83.2424 124.681 82.372C126.399 81.4949 128.284 80.9898 130.211 80.8896C132.137 80.7894 134.064 81.0965 135.864 81.7907C137.664 82.4849 139.298 83.5507 140.659 84.9186L140.659 84.9189C141.121 85.382 141.549 85.8767 141.942 86.3994Z" stroke="black" stroke-opacity="0.2"/>
<path d="M143.362 63.0074C143.362 69.2399 138.31 74.2922 132.078 74.2922C125.846 74.2922 120.794 69.2399 120.794 63.0074C120.794 56.775 125.846 51.7227 132.078 51.7227C138.31 51.7227 143.362 56.775 143.362 63.0074Z" fill="#2F2E41"/>
<path d="M143.362 63.0074C143.362 69.2399 138.31 74.2922 132.078 74.2922C125.846 74.2922 120.794 69.2399 120.794 63.0074C120.794 56.775 125.846 51.7227 132.078 51.7227C138.31 51.7227 143.362 56.775 143.362 63.0074Z" stroke="black"/>
<path d="M143.362 63.0074C143.362 69.2399 138.31 74.2922 132.078 74.2922C125.846 74.2922 120.794 69.2399 120.794 63.0074C120.794 56.775 125.846 51.7227 132.078 51.7227C138.31 51.7227 143.362 56.775 143.362 63.0074Z" stroke="black" stroke-opacity="0.2"/>
<path d="M138.263 63.1453C140.454 67.1536 138.981 72.1791 134.973 74.3702C130.965 76.5612 125.939 75.0882 123.748 71.0799C121.557 67.0717 123.03 62.0462 127.038 59.8551C131.046 57.6641 136.072 59.1371 138.263 63.1453Z" fill="#A0616A"/>
<path d="M138.263 63.1453C140.454 67.1536 138.981 72.1791 134.973 74.3702C130.965 76.5612 125.939 75.0882 123.748 71.0799C121.557 67.0717 123.03 62.0462 127.038 59.8551C131.046 57.6641 136.072 59.1371 138.263 63.1453Z" stroke="black"/>
<path d="M138.263 63.1453C140.454 67.1536 138.981 72.1791 134.973 74.3702C130.965 76.5612 125.939 75.0882 123.748 71.0799C121.557 67.0717 123.03 62.0462 127.038 59.8551C131.046 57.6641 136.072 59.1371 138.263 63.1453Z" stroke="black" stroke-opacity="0.2"/>
<path d="M138.492 59.4047C139.046 60.0896 139.245 61.0285 139 61.7654C137.294 62.7124 135.369 63.2101 133.406 63.2022L131.796 63.1958L133.119 64.1131C133.465 64.3529 133.829 64.5637 134.206 64.7439C131.669 65.0642 129.091 64.9696 126.576 64.4595L126.566 64.4574L126.556 64.4558C125.892 64.3494 125.251 64.1295 124.662 63.8057C124.405 63.6619 124.181 63.4657 124.005 63.2298C123.83 62.9968 123.706 62.7302 123.641 62.4469C123.565 61.995 123.696 61.5379 123.987 61.0832C124.282 60.6222 124.722 60.1958 125.191 59.8406C126.658 58.7485 128.35 57.9961 130.143 57.6378C131.936 57.2794 133.787 57.324 135.561 57.7683C136.727 58.07 137.809 58.5605 138.492 59.4047Z" fill="#2F2E41"/>
<path d="M138.492 59.4047C139.046 60.0896 139.245 61.0285 139 61.7654C137.294 62.7124 135.369 63.2101 133.406 63.2022L131.796 63.1958L133.119 64.1131C133.465 64.3529 133.829 64.5637 134.206 64.7439C131.669 65.0642 129.091 64.9696 126.576 64.4595L126.566 64.4574L126.556 64.4558C125.892 64.3494 125.251 64.1295 124.662 63.8057C124.405 63.6619 124.181 63.4657 124.005 63.2298C123.83 62.9968 123.706 62.7302 123.641 62.4469C123.565 61.995 123.696 61.5379 123.987 61.0832C124.282 60.6222 124.722 60.1958 125.191 59.8406C126.658 58.7485 128.35 57.9961 130.143 57.6378C131.936 57.2794 133.787 57.324 135.561 57.7683C136.727 58.07 137.809 58.5605 138.492 59.4047Z" stroke="black"/>
<path d="M138.492 59.4047C139.046 60.0896 139.245 61.0285 139 61.7654C137.294 62.7124 135.369 63.2101 133.406 63.2022L131.796 63.1958L133.119 64.1131C133.465 64.3529 133.829 64.5637 134.206 64.7439C131.669 65.0642 129.091 64.9696 126.576 64.4595L126.566 64.4574L126.556 64.4558C125.892 64.3494 125.251 64.1295 124.662 63.8057C124.405 63.6619 124.181 63.4657 124.005 63.2298C123.83 62.9968 123.706 62.7302 123.641 62.4469C123.565 61.995 123.696 61.5379 123.987 61.0832C124.282 60.6222 124.722 60.1958 125.191 59.8406C126.658 58.7485 128.35 57.9961 130.143 57.6378C131.936 57.2794 133.787 57.324 135.561 57.7683C136.727 58.07 137.809 58.5605 138.492 59.4047Z" stroke="black" stroke-opacity="0.2"/>
<mask id="path-8-inside-1_521_2" fill="white">
<path d="M131.543 41.0015C126.275 41.0007 121.152 42.7223 116.953 45.9039C112.755 49.0855 109.712 53.5526 108.288 58.6243C106.864 63.6961 107.138 69.0943 109.066 73.9963C110.995 78.8983 114.474 83.0351 118.972 85.7764L119.128 85.8676C119.257 85.9455 119.385 86.0206 119.514 86.0931C119.732 86.2219 119.949 86.3453 120.172 86.4634C120.322 86.5413 120.472 86.6218 120.623 86.6969C122.299 87.5527 124.071 88.2067 125.901 88.6454C126.28 88.7367 126.658 88.8199 127.045 88.8896C128.528 89.1706 130.033 89.3116 131.543 89.311C131.924 89.311 132.302 89.303 132.681 89.2842C133.212 89.26 133.738 89.218 134.259 89.158C134.889 89.0882 135.512 88.9934 136.127 88.8735C137.368 88.6346 138.588 88.2981 139.776 87.8671C139.927 87.8107 140.077 87.7544 140.225 87.698C140.63 87.5423 141.028 87.3759 141.419 87.1988C141.848 87.0056 142.271 86.7998 142.688 86.5815C146.866 84.3934 150.319 81.0399 152.629 76.9277C152.639 76.9062 152.653 76.8847 152.664 76.8632C153.896 74.6521 154.77 72.2598 155.254 69.7752C155.932 66.2774 155.83 62.6728 154.952 59.2194C154.075 55.7661 152.445 52.5494 150.179 49.7997C147.914 47.05 145.068 44.8354 141.846 43.3143C138.624 41.7933 135.106 41.0035 131.543 41.0015H131.543ZM152.224 76.5492C152.202 76.5868 152.183 76.6244 152.162 76.6593C149.898 80.7108 146.494 84.0073 142.372 86.1387C141.961 86.3534 141.543 86.5547 141.118 86.7426C140.767 86.9009 140.407 87.0512 140.045 87.1908C139.892 87.2498 139.736 87.3088 139.58 87.3625C138.554 87.7375 137.502 88.0389 136.432 88.2643C135.639 88.4332 134.837 88.5595 134.03 88.6427C133.534 88.6964 133.029 88.734 132.522 88.7528C132.197 88.7662 131.87 88.7742 131.543 88.7742C130.082 88.776 128.625 88.6403 127.19 88.369C126.317 88.2079 125.454 87.9965 124.605 87.7356C123.313 87.3362 122.057 86.8271 120.851 86.2138C120.711 86.1414 120.572 86.0689 120.435 85.9938C120.239 85.8891 120.04 85.7817 119.847 85.6663C119.702 85.5858 119.557 85.4999 119.415 85.414C119.332 85.3657 119.248 85.3147 119.165 85.2637C115.221 82.8416 112.075 79.3149 110.118 75.121C108.16 70.9271 107.476 66.2507 108.152 61.6719C108.827 57.0931 110.832 52.8133 113.918 49.3637C117.004 45.9141 121.034 43.4463 125.509 42.2666C129.985 41.0868 134.708 41.247 139.093 42.7273C143.478 44.2076 147.332 46.9428 150.177 50.5936C153.022 54.2444 154.732 58.6501 155.096 63.2642C155.46 67.8783 154.461 72.4977 152.224 76.5492H152.224Z"/>
</mask>
<path d="M131.543 41.0015C126.275 41.0007 121.152 42.7223 116.953 45.9039C112.755 49.0855 109.712 53.5526 108.288 58.6243C106.864 63.6961 107.138 69.0943 109.066 73.9963C110.995 78.8983 114.474 83.0351 118.972 85.7764L119.128 85.8676C119.257 85.9455 119.385 86.0206 119.514 86.0931C119.732 86.2219 119.949 86.3453 120.172 86.4634C120.322 86.5413 120.472 86.6218 120.623 86.6969C122.299 87.5527 124.071 88.2067 125.901 88.6454C126.28 88.7367 126.658 88.8199 127.045 88.8896C128.528 89.1706 130.033 89.3116 131.543 89.311C131.924 89.311 132.302 89.303 132.681 89.2842C133.212 89.26 133.738 89.218 134.259 89.158C134.889 89.0882 135.512 88.9934 136.127 88.8735C137.368 88.6346 138.588 88.2981 139.776 87.8671C139.927 87.8107 140.077 87.7544 140.225 87.698C140.63 87.5423 141.028 87.3759 141.419 87.1988C141.848 87.0056 142.271 86.7998 142.688 86.5815C146.866 84.3934 150.319 81.0399 152.629 76.9277C152.639 76.9062 152.653 76.8847 152.664 76.8632C153.896 74.6521 154.77 72.2598 155.254 69.7752C155.932 66.2774 155.83 62.6728 154.952 59.2194C154.075 55.7661 152.445 52.5494 150.179 49.7997C147.914 47.05 145.068 44.8354 141.846 43.3143C138.624 41.7933 135.106 41.0035 131.543 41.0015H131.543ZM152.224 76.5492C152.202 76.5868 152.183 76.6244 152.162 76.6593C149.898 80.7108 146.494 84.0073 142.372 86.1387C141.961 86.3534 141.543 86.5547 141.118 86.7426C140.767 86.9009 140.407 87.0512 140.045 87.1908C139.892 87.2498 139.736 87.3088 139.58 87.3625C138.554 87.7375 137.502 88.0389 136.432 88.2643C135.639 88.4332 134.837 88.5595 134.03 88.6427C133.534 88.6964 133.029 88.734 132.522 88.7528C132.197 88.7662 131.87 88.7742 131.543 88.7742C130.082 88.776 128.625 88.6403 127.19 88.369C126.317 88.2079 125.454 87.9965 124.605 87.7356C123.313 87.3362 122.057 86.8271 120.851 86.2138C120.711 86.1414 120.572 86.0689 120.435 85.9938C120.239 85.8891 120.04 85.7817 119.847 85.6663C119.702 85.5858 119.557 85.4999 119.415 85.414C119.332 85.3657 119.248 85.3147 119.165 85.2637C115.221 82.8416 112.075 79.3149 110.118 75.121C108.16 70.9271 107.476 66.2507 108.152 61.6719C108.827 57.0931 110.832 52.8133 113.918 49.3637C117.004 45.9141 121.034 43.4463 125.509 42.2666C129.985 41.0868 134.708 41.247 139.093 42.7273C143.478 44.2076 147.332 46.9428 150.177 50.5936C153.022 54.2444 154.732 58.6501 155.096 63.2642C155.46 67.8783 154.461 72.4977 152.224 76.5492H152.224Z" fill="#3F3D56"/>
<path d="M131.543 41.0015L131.543 42.0015H131.543V41.0015ZM118.972 85.7764L118.452 86.6303L118.459 86.6348L118.466 86.6391L118.972 85.7764ZM119.128 85.8676L119.645 85.0117L119.633 85.0049L119.128 85.8676ZM119.514 86.0931L120.024 85.2328L120.014 85.227L120.004 85.2215L119.514 86.0931ZM120.172 86.4634L119.703 87.347L119.712 87.3514L120.172 86.4634ZM120.623 86.6969L121.077 85.8062L121.07 85.8025L120.623 86.6969ZM125.901 88.6454L126.136 87.6733L126.135 87.6729L125.901 88.6454ZM127.045 88.8896L127.231 87.9071L127.222 87.9055L127.045 88.8896ZM131.543 89.311L131.543 88.311L131.542 88.311L131.543 89.311ZM132.681 89.2842L132.635 88.2852L132.631 88.2854L132.681 89.2842ZM134.259 89.158L134.149 88.1641L134.144 88.1646L134.259 89.158ZM136.127 88.8735L135.937 87.8916L135.935 87.892L136.127 88.8735ZM139.776 87.8671L140.117 88.8072L140.128 88.8034L139.776 87.8671ZM140.225 87.698L140.581 88.6323L140.583 88.6315L140.225 87.698ZM141.419 87.1988L141.008 86.2869L141.006 86.2879L141.419 87.1988ZM142.688 86.5815L143.152 87.4674L143.152 87.4674L142.688 86.5815ZM152.629 76.9277L153.501 77.4173L153.512 77.3965L153.523 77.3751L152.629 76.9277ZM152.664 76.8632L151.79 76.3765L151.779 76.3959L151.769 76.4157L152.664 76.8632ZM155.254 69.7752L156.235 69.9662L156.235 69.9657L155.254 69.7752ZM131.543 41.0015L131.543 40.0015H131.543V41.0015ZM152.224 76.5492L153.092 77.0457L153.948 75.5492H152.224V76.5492ZM152.162 76.6593L151.31 76.1347L151.299 76.1529L151.289 76.1716L152.162 76.6593ZM142.372 86.1387L141.912 85.2504L141.908 85.2525L142.372 86.1387ZM141.118 86.7426L140.714 85.828L140.708 85.8308L141.118 86.7426ZM140.045 87.1908L139.685 86.2576L139.685 86.2578L140.045 87.1908ZM139.58 87.3625L139.255 86.4171L139.246 86.4201L139.237 86.4232L139.58 87.3625ZM136.432 88.2643L136.226 87.2858L136.224 87.2862L136.432 88.2643ZM134.03 88.6427L133.928 87.648L133.923 87.6485L134.03 88.6427ZM132.522 88.7528L132.485 87.7534L132.481 87.7536L132.522 88.7528ZM131.543 88.7742V87.7742L131.541 87.7742L131.543 88.7742ZM127.19 88.369L127.375 87.3864L127.371 87.3856L127.19 88.369ZM124.605 87.7356L124.31 88.691L124.311 88.6914L124.605 87.7356ZM120.851 86.2138L120.39 87.1013L120.397 87.1052L120.851 86.2138ZM120.435 85.9938L120.916 85.117L120.906 85.1117L120.435 85.9938ZM119.847 85.6663L120.36 84.8077L120.346 84.7997L120.333 84.7922L119.847 85.6663ZM119.415 85.414L119.932 84.5581L119.924 84.5536L119.917 84.5492L119.415 85.414ZM119.165 85.2637L118.642 86.1159L118.643 86.1164L119.165 85.2637ZM152.224 76.5492L151.348 76.0658L150.529 77.5492H152.224V76.5492ZM131.543 40.0015C126.057 40.0007 120.722 41.7936 116.349 45.1069L117.557 46.7009C121.582 43.651 126.493 42.0007 131.543 42.0015L131.543 40.0015ZM116.349 45.1069C111.977 48.4202 108.808 53.0723 107.325 58.354L109.251 58.8946C110.616 54.0329 113.533 49.7507 117.557 46.7009L116.349 45.1069ZM107.325 58.354C105.842 63.6358 106.127 69.2575 108.136 74.3624L109.997 73.6301C108.148 68.9311 107.886 63.7564 109.251 58.8946L107.325 58.354ZM108.136 74.3624C110.145 79.4674 113.767 83.7755 118.452 86.6303L119.492 84.9224C115.181 82.2947 111.846 78.3291 109.997 73.6301L108.136 74.3624ZM118.466 86.6391L118.622 86.7303L119.633 85.0049L119.478 84.9136L118.466 86.6391ZM118.611 86.7235C118.748 86.8066 118.886 86.887 119.024 86.9646L120.004 85.2215C119.885 85.1542 119.765 85.0843 119.645 85.0117L118.611 86.7235ZM119.004 86.9534C119.232 87.0883 119.463 87.2198 119.703 87.347L120.64 85.5799C120.434 85.4709 120.231 85.3555 120.024 85.2328L119.004 86.9534ZM119.712 87.3514C119.844 87.4201 120.018 87.5125 120.175 87.5914L121.07 85.8025C120.927 85.7311 120.8 85.6624 120.631 85.5754L119.712 87.3514ZM120.168 87.5876C121.915 88.4793 123.761 89.1608 125.668 89.6179L126.135 87.6729C124.381 87.2527 122.683 86.6261 121.077 85.8063L120.168 87.5876ZM125.667 89.6175C126.058 89.7119 126.456 89.7996 126.867 89.8737L127.222 87.9055C126.86 87.8402 126.502 87.7615 126.136 87.6733L125.667 89.6175ZM126.859 89.8722C128.403 90.1647 129.971 90.3117 131.543 90.311L131.542 88.311C130.096 88.3116 128.652 88.1764 127.231 87.9071L126.859 89.8722ZM131.543 90.311C131.938 90.311 132.333 90.3027 132.73 90.2829L132.631 88.2854C132.271 88.3033 131.91 88.311 131.543 88.311L131.543 90.311ZM132.726 90.2831C133.28 90.258 133.829 90.2141 134.373 90.1515L134.144 88.1646C133.647 88.2219 133.144 88.2621 132.635 88.2852L132.726 90.2831ZM134.369 90.152C135.026 90.0792 135.676 89.9803 136.318 89.855L135.935 87.892C135.348 88.0066 134.752 88.0973 134.149 88.1641L134.369 90.152ZM136.316 89.8555C137.608 89.6066 138.88 89.2561 140.117 88.8072L139.435 86.927C138.297 87.34 137.127 87.6626 135.937 87.8916L136.316 89.8555ZM140.128 88.8034C140.278 88.7471 140.43 88.6898 140.581 88.6323L139.868 86.7637C139.723 86.8189 139.576 86.8743 139.425 86.9308L140.128 88.8034ZM140.583 88.6315C141.006 88.4689 141.423 88.295 141.831 88.1097L141.006 86.2879C140.633 86.4569 140.253 86.6158 139.866 86.7645L140.583 88.6315ZM141.829 88.1107C142.277 87.9094 142.718 87.6949 143.152 87.4674L142.224 85.6956C141.825 85.9047 141.42 86.1018 141.008 86.2869L141.829 88.1107ZM143.152 87.4674C147.502 85.1895 151.096 81.6983 153.501 77.4173L151.757 76.438C149.542 80.3814 146.231 83.5974 142.224 85.6957L143.152 87.4674ZM153.523 77.3751C153.518 77.3846 153.515 77.391 153.514 77.3924C153.514 77.3934 153.514 77.3933 153.517 77.3871C153.52 77.3826 153.526 77.3719 153.532 77.3603C153.539 77.3481 153.548 77.331 153.558 77.3108L151.769 76.4157C151.774 76.4062 151.778 76.3998 151.778 76.3984C151.779 76.3975 151.779 76.3976 151.775 76.4039C151.773 76.4083 151.767 76.4191 151.76 76.4307C151.754 76.4429 151.745 76.46 151.734 76.4802L153.523 77.3751ZM153.537 77.35C154.821 75.0466 155.731 72.5545 156.235 69.9662L154.272 69.5841C153.809 71.9651 152.971 74.2576 151.79 76.3765L153.537 77.35ZM156.235 69.9657C156.942 66.3232 156.835 62.5695 155.922 58.9732L153.983 59.4656C154.824 62.7761 154.923 66.2316 154.272 69.5846L156.235 69.9657ZM155.922 58.9732C155.008 55.377 153.311 52.0272 150.951 49.1637L149.408 50.4356C151.58 53.0715 153.142 56.1551 153.983 59.4656L155.922 58.9732ZM150.951 49.1637C148.592 46.3003 145.628 43.994 142.273 42.41L141.419 44.2186C144.508 45.6767 147.236 47.7997 149.408 50.4356L150.951 49.1637ZM142.273 42.41C138.918 40.8261 135.254 40.0036 131.543 40.0015L131.542 42.0015C134.958 42.0034 138.33 42.7605 141.419 44.2186L142.273 42.41ZM131.543 40.0015H131.543V42.0015H131.543V40.0015ZM151.355 76.0527C151.346 76.0699 151.337 76.0854 151.33 76.0976C151.327 76.1036 151.324 76.1094 151.321 76.1142C151.319 76.1193 151.317 76.123 151.315 76.1267C151.306 76.1428 151.306 76.1413 151.31 76.1347L153.013 77.1838C153.039 77.1424 153.059 77.1046 153.071 77.0838C153.086 77.0566 153.088 77.0528 153.092 77.0457L151.355 76.0527ZM151.289 76.1716C149.121 80.0519 145.86 83.2091 141.912 85.2504L142.831 87.027C147.127 84.8055 150.676 81.3697 153.035 77.147L151.289 76.1716ZM141.908 85.2525C141.517 85.4571 141.119 85.6489 140.714 85.828L141.523 87.6571C141.967 87.4605 142.405 87.2497 142.835 87.0249L141.908 85.2525ZM140.708 85.8308C140.373 85.9816 140.03 86.1248 139.685 86.2576L140.404 88.1239C140.784 87.9776 141.161 87.8202 141.529 87.6543L140.708 85.8308ZM139.685 86.2578C139.534 86.3161 139.392 86.3697 139.255 86.4171L139.906 88.3079C140.08 88.248 140.25 88.1835 140.405 88.1237L139.685 86.2578ZM139.237 86.4232C138.255 86.7819 137.249 87.0702 136.226 87.2858L136.639 89.2428C137.755 89.0076 138.852 88.6931 139.924 88.3018L139.237 86.4232ZM136.224 87.2862C135.466 87.4477 134.699 87.5685 133.928 87.648L134.133 89.6375C134.975 89.5506 135.812 89.4187 136.641 89.2424L136.224 87.2862ZM133.923 87.6485C133.449 87.6998 132.968 87.7356 132.485 87.7535L132.559 89.7521C133.091 89.7324 133.619 89.693 134.138 89.6369L133.923 87.6485ZM132.481 87.7536C132.167 87.7666 131.854 87.7742 131.543 87.7742V89.7742C131.886 89.7742 132.228 89.7658 132.563 89.7519L132.481 87.7536ZM131.541 87.7742C130.144 87.7759 128.749 87.646 127.375 87.3864L127.004 89.3516C128.501 89.6345 130.021 89.776 131.544 89.7742L131.541 87.7742ZM127.371 87.3856C126.536 87.2315 125.711 87.0293 124.899 86.7797L124.311 88.6914C125.197 88.9637 126.097 89.1843 127.008 89.3524L127.371 87.3856ZM124.9 86.7801C123.662 86.3976 122.459 85.91 121.304 85.3225L120.397 87.1052C121.654 87.7443 122.963 88.2748 124.31 88.691L124.9 86.7801ZM121.312 85.3263C121.17 85.253 121.041 85.1858 120.916 85.1171L119.954 86.8704C120.102 86.952 120.252 87.0298 120.39 87.1013L121.312 85.3263ZM120.906 85.1117C120.711 85.0075 120.531 84.9099 120.36 84.8077L119.334 86.5249C119.55 86.6536 119.767 86.7706 119.963 86.8758L120.906 85.1117ZM120.333 84.7922C120.203 84.7203 120.07 84.6415 119.932 84.5581L118.898 86.27C119.044 86.3583 119.201 86.4514 119.361 86.5405L120.333 84.7922ZM119.917 84.5492C119.846 84.5079 119.773 84.4632 119.688 84.4111L118.643 86.1164C118.724 86.1663 118.818 86.2236 118.913 86.2789L119.917 84.5492ZM119.689 84.4116C115.912 82.092 112.899 78.7144 111.024 74.698L109.211 75.544C111.252 79.9153 114.531 83.5913 118.642 86.1159L119.689 84.4116ZM111.024 74.698C109.149 70.6815 108.494 66.203 109.141 61.8178L107.163 61.5259C106.458 66.2984 107.171 71.1727 109.211 75.544L111.024 74.698ZM109.141 61.8178C109.788 57.4327 111.708 53.3341 114.663 50.0304L113.173 48.697C109.957 52.2926 107.867 56.7534 107.163 61.5259L109.141 61.8178ZM114.663 50.0304C117.618 46.7267 121.478 44.3633 125.764 43.2335L125.255 41.2996C120.59 42.5292 116.389 45.1014 113.173 48.697L114.663 50.0304ZM125.764 43.2335C130.05 42.1037 134.574 42.2571 138.773 43.6748L139.413 41.7798C134.842 40.2369 129.919 40.0699 125.255 41.2996L125.764 43.2335ZM138.773 43.6748C142.973 45.0924 146.664 47.7119 149.388 51.2083L150.966 49.979C148.001 46.1737 143.984 43.3228 139.413 41.7798L138.773 43.6748ZM149.388 51.2083C152.113 54.7046 153.751 58.9239 154.099 63.3428L156.093 63.1856C155.714 58.3763 153.931 53.7842 150.966 49.979L149.388 51.2083ZM154.099 63.3428C154.448 67.7617 153.491 72.1856 151.348 76.0658L153.099 77.0327C155.431 72.8097 156.472 67.9949 156.093 63.1856L154.099 63.3428ZM152.224 77.5492H152.224V75.5492H152.224V77.5492Z" fill="black" mask="url(#path-8-inside-1_521_2)"/>
<path d="M131.543 41.0015L131.543 42.0015H131.543V41.0015ZM118.972 85.7764L118.452 86.6303L118.459 86.6348L118.466 86.6391L118.972 85.7764ZM119.128 85.8676L119.645 85.0117L119.633 85.0049L119.128 85.8676ZM119.514 86.0931L120.024 85.2328L120.014 85.227L120.004 85.2215L119.514 86.0931ZM120.172 86.4634L119.703 87.347L119.712 87.3514L120.172 86.4634ZM120.623 86.6969L121.077 85.8062L121.07 85.8025L120.623 86.6969ZM125.901 88.6454L126.136 87.6733L126.135 87.6729L125.901 88.6454ZM127.045 88.8896L127.231 87.9071L127.222 87.9055L127.045 88.8896ZM131.543 89.311L131.543 88.311L131.542 88.311L131.543 89.311ZM132.681 89.2842L132.635 88.2852L132.631 88.2854L132.681 89.2842ZM134.259 89.158L134.149 88.1641L134.144 88.1646L134.259 89.158ZM136.127 88.8735L135.937 87.8916L135.935 87.892L136.127 88.8735ZM139.776 87.8671L140.117 88.8072L140.128 88.8034L139.776 87.8671ZM140.225 87.698L140.581 88.6323L140.583 88.6315L140.225 87.698ZM141.419 87.1988L141.008 86.2869L141.006 86.2879L141.419 87.1988ZM142.688 86.5815L143.152 87.4674L143.152 87.4674L142.688 86.5815ZM152.629 76.9277L153.501 77.4173L153.512 77.3965L153.523 77.3751L152.629 76.9277ZM152.664 76.8632L151.79 76.3765L151.779 76.3959L151.769 76.4157L152.664 76.8632ZM155.254 69.7752L156.235 69.9662L156.235 69.9657L155.254 69.7752ZM131.543 41.0015L131.543 40.0015H131.543V41.0015ZM152.224 76.5492L153.092 77.0457L153.948 75.5492H152.224V76.5492ZM152.162 76.6593L151.31 76.1347L151.299 76.1529L151.289 76.1716L152.162 76.6593ZM142.372 86.1387L141.912 85.2504L141.908 85.2525L142.372 86.1387ZM141.118 86.7426L140.714 85.828L140.708 85.8308L141.118 86.7426ZM140.045 87.1908L139.685 86.2576L139.685 86.2578L140.045 87.1908ZM139.58 87.3625L139.255 86.4171L139.246 86.4201L139.237 86.4232L139.58 87.3625ZM136.432 88.2643L136.226 87.2858L136.224 87.2862L136.432 88.2643ZM134.03 88.6427L133.928 87.648L133.923 87.6485L134.03 88.6427ZM132.522 88.7528L132.485 87.7534L132.481 87.7536L132.522 88.7528ZM131.543 88.7742V87.7742L131.541 87.7742L131.543 88.7742ZM127.19 88.369L127.375 87.3864L127.371 87.3856L127.19 88.369ZM124.605 87.7356L124.31 88.691L124.311 88.6914L124.605 87.7356ZM120.851 86.2138L120.39 87.1013L120.397 87.1052L120.851 86.2138ZM120.435 85.9938L120.916 85.117L120.906 85.1117L120.435 85.9938ZM119.847 85.6663L120.36 84.8077L120.346 84.7997L120.333 84.7922L119.847 85.6663ZM119.415 85.414L119.932 84.5581L119.924 84.5536L119.917 84.5492L119.415 85.414ZM119.165 85.2637L118.642 86.1159L118.643 86.1164L119.165 85.2637ZM152.224 76.5492L151.348 76.0658L150.529 77.5492H152.224V76.5492ZM131.543 40.0015C126.057 40.0007 120.722 41.7936 116.349 45.1069L117.557 46.7009C121.582 43.651 126.493 42.0007 131.543 42.0015L131.543 40.0015ZM116.349 45.1069C111.977 48.4202 108.808 53.0723 107.325 58.354L109.251 58.8946C110.616 54.0329 113.533 49.7507 117.557 46.7009L116.349 45.1069ZM107.325 58.354C105.842 63.6358 106.127 69.2575 108.136 74.3624L109.997 73.6301C108.148 68.9311 107.886 63.7564 109.251 58.8946L107.325 58.354ZM108.136 74.3624C110.145 79.4674 113.767 83.7755 118.452 86.6303L119.492 84.9224C115.181 82.2947 111.846 78.3291 109.997 73.6301L108.136 74.3624ZM118.466 86.6391L118.622 86.7303L119.633 85.0049L119.478 84.9136L118.466 86.6391ZM118.611 86.7235C118.748 86.8066 118.886 86.887 119.024 86.9646L120.004 85.2215C119.885 85.1542 119.765 85.0843 119.645 85.0117L118.611 86.7235ZM119.004 86.9534C119.232 87.0883 119.463 87.2198 119.703 87.347L120.64 85.5799C120.434 85.4709 120.231 85.3555 120.024 85.2328L119.004 86.9534ZM119.712 87.3514C119.844 87.4201 120.018 87.5125 120.175 87.5914L121.07 85.8025C120.927 85.7311 120.8 85.6624 120.631 85.5754L119.712 87.3514ZM120.168 87.5876C121.915 88.4793 123.761 89.1608 125.668 89.6179L126.135 87.6729C124.381 87.2527 122.683 86.6261 121.077 85.8063L120.168 87.5876ZM125.667 89.6175C126.058 89.7119 126.456 89.7996 126.867 89.8737L127.222 87.9055C126.86 87.8402 126.502 87.7615 126.136 87.6733L125.667 89.6175ZM126.859 89.8722C128.403 90.1647 129.971 90.3117 131.543 90.311L131.542 88.311C130.096 88.3116 128.652 88.1764 127.231 87.9071L126.859 89.8722ZM131.543 90.311C131.938 90.311 132.333 90.3027 132.73 90.2829L132.631 88.2854C132.271 88.3033 131.91 88.311 131.543 88.311L131.543 90.311ZM132.726 90.2831C133.28 90.258 133.829 90.2141 134.373 90.1515L134.144 88.1646C133.647 88.2219 133.144 88.2621 132.635 88.2852L132.726 90.2831ZM134.369 90.152C135.026 90.0792 135.676 89.9803 136.318 89.855L135.935 87.892C135.348 88.0066 134.752 88.0973 134.149 88.1641L134.369 90.152ZM136.316 89.8555C137.608 89.6066 138.88 89.2561 140.117 88.8072L139.435 86.927C138.297 87.34 137.127 87.6626 135.937 87.8916L136.316 89.8555ZM140.128 88.8034C140.278 88.7471 140.43 88.6898 140.581 88.6323L139.868 86.7637C139.723 86.8189 139.576 86.8743 139.425 86.9308L140.128 88.8034ZM140.583 88.6315C141.006 88.4689 141.423 88.295 141.831 88.1097L141.006 86.2879C140.633 86.4569 140.253 86.6158 139.866 86.7645L140.583 88.6315ZM141.829 88.1107C142.277 87.9094 142.718 87.6949 143.152 87.4674L142.224 85.6956C141.825 85.9047 141.42 86.1018 141.008 86.2869L141.829 88.1107ZM143.152 87.4674C147.502 85.1895 151.096 81.6983 153.501 77.4173L151.757 76.438C149.542 80.3814 146.231 83.5974 142.224 85.6957L143.152 87.4674ZM153.523 77.3751C153.518 77.3846 153.515 77.391 153.514 77.3924C153.514 77.3934 153.514 77.3933 153.517 77.3871C153.52 77.3826 153.526 77.3719 153.532 77.3603C153.539 77.3481 153.548 77.331 153.558 77.3108L151.769 76.4157C151.774 76.4062 151.778 76.3998 151.778 76.3984C151.779 76.3975 151.779 76.3976 151.775 76.4039C151.773 76.4083 151.767 76.4191 151.76 76.4307C151.754 76.4429 151.745 76.46 151.734 76.4802L153.523 77.3751ZM153.537 77.35C154.821 75.0466 155.731 72.5545 156.235 69.9662L154.272 69.5841C153.809 71.9651 152.971 74.2576 151.79 76.3765L153.537 77.35ZM156.235 69.9657C156.942 66.3232 156.835 62.5695 155.922 58.9732L153.983 59.4656C154.824 62.7761 154.923 66.2316 154.272 69.5846L156.235 69.9657ZM155.922 58.9732C155.008 55.377 153.311 52.0272 150.951 49.1637L149.408 50.4356C151.58 53.0715 153.142 56.1551 153.983 59.4656L155.922 58.9732ZM150.951 49.1637C148.592 46.3003 145.628 43.994 142.273 42.41L141.419 44.2186C144.508 45.6767 147.236 47.7997 149.408 50.4356L150.951 49.1637ZM142.273 42.41C138.918 40.8261 135.254 40.0036 131.543 40.0015L131.542 42.0015C134.958 42.0034 138.33 42.7605 141.419 44.2186L142.273 42.41ZM131.543 40.0015H131.543V42.0015H131.543V40.0015ZM151.355 76.0527C151.346 76.0699 151.337 76.0854 151.33 76.0976C151.327 76.1036 151.324 76.1094 151.321 76.1142C151.319 76.1193 151.317 76.123 151.315 76.1267C151.306 76.1428 151.306 76.1413 151.31 76.1347L153.013 77.1838C153.039 77.1424 153.059 77.1046 153.071 77.0838C153.086 77.0566 153.088 77.0528 153.092 77.0457L151.355 76.0527ZM151.289 76.1716C149.121 80.0519 145.86 83.2091 141.912 85.2504L142.831 87.027C147.127 84.8055 150.676 81.3697 153.035 77.147L151.289 76.1716ZM141.908 85.2525C141.517 85.4571 141.119 85.6489 140.714 85.828L141.523 87.6571C141.967 87.4605 142.405 87.2497 142.835 87.0249L141.908 85.2525ZM140.708 85.8308C140.373 85.9816 140.03 86.1248 139.685 86.2576L140.404 88.1239C140.784 87.9776 141.161 87.8202 141.529 87.6543L140.708 85.8308ZM139.685 86.2578C139.534 86.3161 139.392 86.3697 139.255 86.4171L139.906 88.3079C140.08 88.248 140.25 88.1835 140.405 88.1237L139.685 86.2578ZM139.237 86.4232C138.255 86.7819 137.249 87.0702 136.226 87.2858L136.639 89.2428C137.755 89.0076 138.852 88.6931 139.924 88.3018L139.237 86.4232ZM136.224 87.2862C135.466 87.4477 134.699 87.5685 133.928 87.648L134.133 89.6375C134.975 89.5506 135.812 89.4187 136.641 89.2424L136.224 87.2862ZM133.923 87.6485C133.449 87.6998 132.968 87.7356 132.485 87.7535L132.559 89.7521C133.091 89.7324 133.619 89.693 134.138 89.6369L133.923 87.6485ZM132.481 87.7536C132.167 87.7666 131.854 87.7742 131.543 87.7742V89.7742C131.886 89.7742 132.228 89.7658 132.563 89.7519L132.481 87.7536ZM131.541 87.7742C130.144 87.7759 128.749 87.646 127.375 87.3864L127.004 89.3516C128.501 89.6345 130.021 89.776 131.544 89.7742L131.541 87.7742ZM127.371 87.3856C126.536 87.2315 125.711 87.0293 124.899 86.7797L124.311 88.6914C125.197 88.9637 126.097 89.1843 127.008 89.3524L127.371 87.3856ZM124.9 86.7801C123.662 86.3976 122.459 85.91 121.304 85.3225L120.397 87.1052C121.654 87.7443 122.963 88.2748 124.31 88.691L124.9 86.7801ZM121.312 85.3263C121.17 85.253 121.041 85.1858 120.916 85.1171L119.954 86.8704C120.102 86.952 120.252 87.0298 120.39 87.1013L121.312 85.3263ZM120.906 85.1117C120.711 85.0075 120.531 84.9099 120.36 84.8077L119.334 86.5249C119.55 86.6536 119.767 86.7706 119.963 86.8758L120.906 85.1117ZM120.333 84.7922C120.203 84.7203 120.07 84.6415 119.932 84.5581L118.898 86.27C119.044 86.3583 119.201 86.4514 119.361 86.5405L120.333 84.7922ZM119.917 84.5492C119.846 84.5079 119.773 84.4632 119.688 84.4111L118.643 86.1164C118.724 86.1663 118.818 86.2236 118.913 86.2789L119.917 84.5492ZM119.689 84.4116C115.912 82.092 112.899 78.7144 111.024 74.698L109.211 75.544C111.252 79.9153 114.531 83.5913 118.642 86.1159L119.689 84.4116ZM111.024 74.698C109.149 70.6815 108.494 66.203 109.141 61.8178L107.163 61.5259C106.458 66.2984 107.171 71.1727 109.211 75.544L111.024 74.698ZM109.141 61.8178C109.788 57.4327 111.708 53.3341 114.663 50.0304L113.173 48.697C109.957 52.2926 107.867 56.7534 107.163 61.5259L109.141 61.8178ZM114.663 50.0304C117.618 46.7267 121.478 44.3633 125.764 43.2335L125.255 41.2996C120.59 42.5292 116.389 45.1014 113.173 48.697L114.663 50.0304ZM125.764 43.2335C130.05 42.1037 134.574 42.2571 138.773 43.6748L139.413 41.7798C134.842 40.2369 129.919 40.0699 125.255 41.2996L125.764 43.2335ZM138.773 43.6748C142.973 45.0924 146.664 47.7119 149.388 51.2083L150.966 49.979C148.001 46.1737 143.984 43.3228 139.413 41.7798L138.773 43.6748ZM149.388 51.2083C152.113 54.7046 153.751 58.9239 154.099 63.3428L156.093 63.1856C155.714 58.3763 153.931 53.7842 150.966 49.979L149.388 51.2083ZM154.099 63.3428C154.448 67.7617 153.491 72.1856 151.348 76.0658L153.099 77.0327C155.431 72.8097 156.472 67.9949 156.093 63.1856L154.099 63.3428ZM152.224 77.5492H152.224V75.5492H152.224V77.5492Z" fill="black" fill-opacity="0.2" mask="url(#path-8-inside-1_521_2)"/>
<path d="M125.613 51.4324L126.031 51.475C126.203 52.4557 126.301 53.3932 126.122 54.2974C125.895 55.4472 125.119 56.4623 124.119 56.6754C123.247 56.8614 122.254 56.4035 121.701 55.6133C121.433 55.1934 121.25 54.7249 121.162 54.2344C121.074 53.7409 121.084 53.2348 121.192 52.7452L121.192 52.7453L121.195 52.7323C121.427 51.5274 122.18 50.4394 123.224 50.1105C123.716 49.9551 124.303 50.0323 124.782 50.2963C125.26 50.5593 125.569 50.9699 125.613 51.4324Z" fill="#2F2E41"/>
<path d="M125.613 51.4324L126.031 51.475C126.203 52.4557 126.301 53.3932 126.122 54.2974C125.895 55.4472 125.119 56.4623 124.119 56.6754C123.247 56.8614 122.254 56.4035 121.701 55.6133C121.433 55.1934 121.25 54.7249 121.162 54.2344C121.074 53.7409 121.084 53.2348 121.192 52.7452L121.192 52.7453L121.195 52.7323C121.427 51.5274 122.18 50.4394 123.224 50.1105C123.716 49.9551 124.303 50.0323 124.782 50.2963C125.26 50.5593 125.569 50.9699 125.613 51.4324Z" stroke="black"/>
<path d="M125.613 51.4324L126.031 51.475C126.203 52.4557 126.301 53.3932 126.122 54.2974C125.895 55.4472 125.119 56.4623 124.119 56.6754C123.247 56.8614 122.254 56.4035 121.701 55.6133C121.433 55.1934 121.25 54.7249 121.162 54.2344C121.074 53.7409 121.084 53.2348 121.192 52.7452L121.192 52.7453L121.195 52.7323C121.427 51.5274 122.18 50.4394 123.224 50.1105C123.716 49.9551 124.303 50.0323 124.782 50.2963C125.26 50.5593 125.569 50.9699 125.613 51.4324Z" stroke="black" stroke-opacity="0.2"/>
<path d="M143.589 53.3372L144.007 53.3797C144.179 54.3604 144.277 55.298 144.098 56.2022C143.871 57.352 143.095 58.3671 142.096 58.5802L142.2 59.0692L142.096 58.5802C141.223 58.7662 140.23 58.3082 139.677 57.5181C139.409 57.0981 139.226 56.6297 139.139 56.1392C139.05 55.6457 139.061 55.1396 139.168 54.65L139.169 54.65L139.171 54.6371C139.403 53.4322 140.156 52.3442 141.2 52.0152C141.692 51.8599 142.279 51.9371 142.758 52.2011C143.236 52.4641 143.545 52.8747 143.589 53.3372Z" fill="#2F2E41"/>
<path d="M143.589 53.3372L144.007 53.3797C144.179 54.3604 144.277 55.298 144.098 56.2022C143.871 57.352 143.095 58.3671 142.096 58.5802L142.2 59.0692L142.096 58.5802C141.223 58.7662 140.23 58.3082 139.677 57.5181C139.409 57.0981 139.226 56.6297 139.139 56.1392C139.05 55.6457 139.061 55.1396 139.168 54.65L139.169 54.65L139.171 54.6371C139.403 53.4322 140.156 52.3442 141.2 52.0152C141.692 51.8599 142.279 51.9371 142.758 52.2011C143.236 52.4641 143.545 52.8747 143.589 53.3372Z" stroke="black"/>
<path d="M143.589 53.3372L144.007 53.3797C144.179 54.3604 144.277 55.298 144.098 56.2022C143.871 57.352 143.095 58.3671 142.096 58.5802L142.2 59.0692L142.096 58.5802C141.223 58.7662 140.23 58.3082 139.677 57.5181C139.409 57.0981 139.226 56.6297 139.139 56.1392C139.05 55.6457 139.061 55.1396 139.168 54.65L139.169 54.65L139.171 54.6371C139.403 53.4322 140.156 52.3442 141.2 52.0152C141.692 51.8599 142.279 51.9371 142.758 52.2011C143.236 52.4641 143.545 52.8747 143.589 53.3372Z" stroke="black" stroke-opacity="0.2"/>
<path d="M89.276 74.0804L89.2746 74.0789L75.9574 59.5503L75.957 59.5499C75.7591 59.3345 75.5187 59.1625 75.251 59.0447C74.9832 58.9269 74.694 58.8659 74.4015 58.8655H74.4009H4.02865C3.09313 58.8645 2.19621 58.4924 1.53469 57.8308C0.873226 57.1693 0.501125 56.2725 0.5 55.337V29.9583C0.501124 29.0228 0.873227 28.1259 1.53469 27.4644C2.19615 26.8029 3.09295 26.4308 4.02837 26.4297H95.2011C96.1365 26.4308 97.0333 26.8029 97.6948 27.4644C98.3563 28.126 98.7284 29.0229 98.7294 29.9585V55.3367C98.7284 56.2723 98.3563 57.1693 97.6948 57.8308C97.0332 58.4924 96.1363 58.8645 95.2008 58.8655H92.6166H92.616C92.0563 58.8662 91.5197 59.0888 91.124 59.4846C90.7283 59.8804 90.5057 60.4169 90.5051 60.9766V60.9772L90.5051 73.6002L90.5051 73.6024C90.5057 73.7446 90.463 73.8837 90.3827 74.001C90.3024 74.1184 90.1883 74.2086 90.0556 74.2596L90.0526 74.2607C89.97 74.293 89.8821 74.3097 89.7935 74.3098C89.6961 74.3097 89.5998 74.2892 89.5108 74.2498C89.4216 74.2103 89.3416 74.1526 89.276 74.0804Z" fill="white"/>
<path d="M89.276 74.0804L89.2746 74.0789L75.9574 59.5503L75.957 59.5499C75.7591 59.3345 75.5187 59.1625 75.251 59.0447C74.9832 58.9269 74.694 58.8659 74.4015 58.8655H74.4009H4.02865C3.09313 58.8645 2.19621 58.4924 1.53469 57.8308C0.873226 57.1693 0.501125 56.2725 0.5 55.337V29.9583C0.501124 29.0228 0.873227 28.1259 1.53469 27.4644C2.19615 26.8029 3.09295 26.4308 4.02837 26.4297H95.2011C96.1365 26.4308 97.0333 26.8029 97.6948 27.4644C98.3563 28.126 98.7284 29.0229 98.7294 29.9585V55.3367C98.7284 56.2723 98.3563 57.1693 97.6948 57.8308C97.0332 58.4924 96.1363 58.8645 95.2008 58.8655H92.6166H92.616C92.0563 58.8662 91.5197 59.0888 91.124 59.4846C90.7283 59.8804 90.5057 60.4169 90.5051 60.9766V60.9772L90.5051 73.6002L90.5051 73.6024C90.5057 73.7446 90.463 73.8837 90.3827 74.001C90.3024 74.1184 90.1883 74.2086 90.0556 74.2596L90.0526 74.2607C89.97 74.293 89.8821 74.3097 89.7935 74.3098C89.6961 74.3097 89.5998 74.2892 89.5108 74.2498C89.4216 74.2103 89.3416 74.1526 89.276 74.0804Z" stroke="black"/>
<path d="M89.276 74.0804L89.2746 74.0789L75.9574 59.5503L75.957 59.5499C75.7591 59.3345 75.5187 59.1625 75.251 59.0447C74.9832 58.9269 74.694 58.8659 74.4015 58.8655H74.4009H4.02865C3.09313 58.8645 2.19621 58.4924 1.53469 57.8308C0.873226 57.1693 0.501125 56.2725 0.5 55.337V29.9583C0.501124 29.0228 0.873227 28.1259 1.53469 27.4644C2.19615 26.8029 3.09295 26.4308 4.02837 26.4297H95.2011C96.1365 26.4308 97.0333 26.8029 97.6948 27.4644C98.3563 28.126 98.7284 29.0229 98.7294 29.9585V55.3367C98.7284 56.2723 98.3563 57.1693 97.6948 57.8308C97.0332 58.4924 96.1363 58.8645 95.2008 58.8655H92.6166H92.616C92.0563 58.8662 91.5197 59.0888 91.124 59.4846C90.7283 59.8804 90.5057 60.4169 90.5051 60.9766V60.9772L90.5051 73.6002L90.5051 73.6024C90.5057 73.7446 90.463 73.8837 90.3827 74.001C90.3024 74.1184 90.1883 74.2086 90.0556 74.2596L90.0526 74.2607C89.97 74.293 89.8821 74.3097 89.7935 74.3098C89.6961 74.3097 89.5998 74.2892 89.5108 74.2498C89.4216 74.2103 89.3416 74.1526 89.276 74.0804Z" stroke="black" stroke-opacity="0.2"/>
<path d="M4.02813 25.9665L4.02809 25.9297L4.02813 25.9665Z" fill="#3F3D56"/>
<path d="M4.02813 25.9665L4.02809 25.9297L4.02813 25.9665Z" stroke="black"/>
<path d="M4.02813 25.9665L4.02809 25.9297L4.02813 25.9665Z" stroke="black" stroke-opacity="0.2"/>
<path d="M12.9052 33.6001C12.9052 35.2707 11.5509 36.625 9.88045 36.625C8.20996 36.625 6.85571 35.2707 6.85571 33.6001C6.85571 31.9295 8.20996 30.5752 9.88045 30.5752C11.5509 30.5752 12.9052 31.9295 12.9052 33.6001Z" fill="#FFA934"/>
<path d="M12.9052 33.6001C12.9052 35.2707 11.5509 36.625 9.88045 36.625C8.20996 36.625 6.85571 35.2707 6.85571 33.6001C6.85571 31.9295 8.20996 30.5752 9.88045 30.5752C11.5509 30.5752 12.9052 31.9295 12.9052 33.6001Z" stroke="black"/>
<path d="M12.9052 33.6001C12.9052 35.2707 11.5509 36.625 9.88045 36.625C8.20996 36.625 6.85571 35.2707 6.85571 33.6001C6.85571 31.9295 8.20996 30.5752 9.88045 30.5752C11.5509 30.5752 12.9052 31.9295 12.9052 33.6001Z" stroke="black" stroke-opacity="0.2"/>
<path d="M8.14029 52.6046L8.13969 52.6046C7.95835 52.6048 7.77875 52.5693 7.61114 52.5001C7.44354 52.4308 7.29123 52.3292 7.16292 52.201C7.03461 52.0729 6.93282 51.9207 6.86338 51.7532C6.79393 51.5856 6.75818 51.406 6.75818 51.2247C6.75818 51.0433 6.79393 50.8637 6.86338 50.6962C6.93282 50.5287 7.03461 50.3765 7.16292 50.2483C7.29123 50.1202 7.44354 50.0185 7.61114 49.9493C7.77875 49.88 7.95835 49.8445 8.13969 49.8447H8.14029H91.0888C91.4544 49.8452 91.8048 49.9908 92.0632 50.2495C92.3216 50.5082 92.4668 50.859 92.4668 51.2247C92.4668 51.5904 92.3216 51.9411 92.0632 52.1999C91.8048 52.4586 91.4544 52.6041 91.0888 52.6046C91.0887 52.6046 91.0886 52.6046 91.0886 52.6046L8.14029 52.6046Z" fill="#E6E6E6"/>
<path d="M8.14029 52.6046L8.13969 52.6046C7.95835 52.6048 7.77875 52.5693 7.61114 52.5001C7.44354 52.4308 7.29123 52.3292 7.16292 52.201C7.03461 52.0729 6.93282 51.9207 6.86338 51.7532C6.79393 51.5856 6.75818 51.406 6.75818 51.2247C6.75818 51.0433 6.79393 50.8637 6.86338 50.6962C6.93282 50.5287 7.03461 50.3765 7.16292 50.2483C7.29123 50.1202 7.44354 50.0185 7.61114 49.9493C7.77875 49.88 7.95835 49.8445 8.13969 49.8447H8.14029H91.0888C91.4544 49.8452 91.8048 49.9908 92.0632 50.2495C92.3216 50.5082 92.4668 50.859 92.4668 51.2247C92.4668 51.5904 92.3216 51.9411 92.0632 52.1999C91.8048 52.4586 91.4544 52.6041 91.0888 52.6046C91.0887 52.6046 91.0886 52.6046 91.0886 52.6046L8.14029 52.6046Z" stroke="black"/>
<path d="M8.14029 52.6046L8.13969 52.6046C7.95835 52.6048 7.77875 52.5693 7.61114 52.5001C7.44354 52.4308 7.29123 52.3292 7.16292 52.201C7.03461 52.0729 6.93282 51.9207 6.86338 51.7532C6.79393 51.5856 6.75818 51.406 6.75818 51.2247C6.75818 51.0433 6.79393 50.8637 6.86338 50.6962C6.93282 50.5287 7.03461 50.3765 7.16292 50.2483C7.29123 50.1202 7.44354 50.0185 7.61114 49.9493C7.77875 49.88 7.95835 49.8445 8.13969 49.8447H8.14029H91.0888C91.4544 49.8452 91.8048 49.9908 92.0632 50.2495C92.3216 50.5082 92.4668 50.859 92.4668 51.2247C92.4668 51.5904 92.3216 51.9411 92.0632 52.1999C91.8048 52.4586 91.4544 52.6041 91.0888 52.6046C91.0887 52.6046 91.0886 52.6046 91.0886 52.6046L8.14029 52.6046Z" stroke="black" stroke-opacity="0.2"/>
<path d="M8.14029 44.6149L8.13969 44.6149C7.95835 44.6151 7.77875 44.5796 7.61114 44.5103C7.44354 44.4411 7.29123 44.3395 7.16292 44.2113C7.03461 44.0831 6.93282 43.9309 6.86338 43.7634C6.79393 43.5959 6.75818 43.4163 6.75818 43.2349C6.75818 43.0536 6.79393 42.874 6.86338 42.7065C6.93282 42.5389 7.03461 42.3867 7.16292 42.2586C7.29123 42.1304 7.44354 42.0288 7.61114 41.9596C7.77875 41.8903 7.95835 41.8548 8.13969 41.855H8.14029H64.0662C64.4321 41.855 64.7831 42.0004 65.0419 42.2592C65.3006 42.5179 65.446 42.8689 65.446 43.2349C65.446 43.6009 65.3006 43.9519 65.0419 44.2107C64.7831 44.4695 64.4321 44.6149 64.0662 44.6149L8.14029 44.6149Z" fill="#E6E6E6"/>
<path d="M8.14029 44.6149L8.13969 44.6149C7.95835 44.6151 7.77875 44.5796 7.61114 44.5103C7.44354 44.4411 7.29123 44.3395 7.16292 44.2113C7.03461 44.0831 6.93282 43.9309 6.86338 43.7634C6.79393 43.5959 6.75818 43.4163 6.75818 43.2349C6.75818 43.0536 6.79393 42.874 6.86338 42.7065C6.93282 42.5389 7.03461 42.3867 7.16292 42.2586C7.29123 42.1304 7.44354 42.0288 7.61114 41.9596C7.77875 41.8903 7.95835 41.8548 8.13969 41.855H8.14029H64.0662C64.4321 41.855 64.7831 42.0004 65.0419 42.2592C65.3006 42.5179 65.446 42.8689 65.446 43.2349C65.446 43.6009 65.3006 43.9519 65.0419 44.2107C64.7831 44.4695 64.4321 44.6149 64.0662 44.6149L8.14029 44.6149Z" stroke="black"/>
<path d="M8.14029 44.6149L8.13969 44.6149C7.95835 44.6151 7.77875 44.5796 7.61114 44.5103C7.44354 44.4411 7.29123 44.3395 7.16292 44.2113C7.03461 44.0831 6.93282 43.9309 6.86338 43.7634C6.79393 43.5959 6.75818 43.4163 6.75818 43.2349C6.75818 43.0536 6.79393 42.874 6.86338 42.7065C6.93282 42.5389 7.03461 42.3867 7.16292 42.2586C7.29123 42.1304 7.44354 42.0288 7.61114 41.9596C7.77875 41.8903 7.95835 41.8548 8.13969 41.855H8.14029H64.0662C64.4321 41.855 64.7831 42.0004 65.0419 42.2592C65.3006 42.5179 65.446 42.8689 65.446 43.2349C65.446 43.6009 65.3006 43.9519 65.0419 44.2107C64.7831 44.4695 64.4321 44.6149 64.0662 44.6149L8.14029 44.6149Z" stroke="black" stroke-opacity="0.2"/>
<path d="M148.695 159.754V159.752L148.695 147.129L148.695 147.128C148.694 146.569 148.472 146.032 148.076 145.636C147.68 145.241 147.144 145.018 146.584 145.017H146.583H143.999C143.064 145.016 142.167 144.644 141.505 143.983C140.844 143.321 140.472 142.424 140.471 141.489V116.11C140.472 115.175 140.844 114.278 141.505 113.616C142.167 112.955 143.063 112.583 143.999 112.582H235.172C236.107 112.583 237.004 112.955 237.665 113.616C238.327 114.278 238.699 115.175 238.7 116.11V141.489C238.699 142.424 238.327 143.321 237.665 143.983C237.004 144.644 236.107 145.016 235.171 145.017H164.799H164.798C164.506 145.018 164.217 145.079 163.949 145.197C163.681 145.314 163.441 145.486 163.243 145.702L163.243 145.702L149.925 160.231L149.924 160.232C149.858 160.304 149.778 160.362 149.689 160.402C149.6 160.441 149.504 160.462 149.406 160.462C149.318 160.462 149.23 160.445 149.147 160.413L148.965 160.878L149.144 160.411C149.012 160.36 148.898 160.27 148.817 160.153C148.737 160.036 148.694 159.896 148.695 159.754Z" fill="white"/>
<path d="M148.695 159.754V159.752L148.695 147.129L148.695 147.128C148.694 146.569 148.472 146.032 148.076 145.636C147.68 145.241 147.144 145.018 146.584 145.017H146.583H143.999C143.064 145.016 142.167 144.644 141.505 143.983C140.844 143.321 140.472 142.424 140.471 141.489V116.11C140.472 115.175 140.844 114.278 141.505 113.616C142.167 112.955 143.063 112.583 143.999 112.582H235.172C236.107 112.583 237.004 112.955 237.665 113.616C238.327 114.278 238.699 115.175 238.7 116.11V141.489C238.699 142.424 238.327 143.321 237.665 143.983C237.004 144.644 236.107 145.016 235.171 145.017H164.799H164.798C164.506 145.018 164.217 145.079 163.949 145.197C163.681 145.314 163.441 145.486 163.243 145.702L163.243 145.702L149.925 160.231L149.924 160.232C149.858 160.304 149.778 160.362 149.689 160.402C149.6 160.441 149.504 160.462 149.406 160.462C149.318 160.462 149.23 160.445 149.147 160.413L148.965 160.878L149.144 160.411C149.012 160.36 148.898 160.27 148.817 160.153C148.737 160.036 148.694 159.896 148.695 159.754Z" stroke="black"/>
<path d="M148.695 159.754V159.752L148.695 147.129L148.695 147.128C148.694 146.569 148.472 146.032 148.076 145.636C147.68 145.241 147.144 145.018 146.584 145.017H146.583H143.999C143.064 145.016 142.167 144.644 141.505 143.983C140.844 143.321 140.472 142.424 140.471 141.489V116.11C140.472 115.175 140.844 114.278 141.505 113.616C142.167 112.955 143.063 112.583 143.999 112.582H235.172C236.107 112.583 237.004 112.955 237.665 113.616C238.327 114.278 238.699 115.175 238.7 116.11V141.489C238.699 142.424 238.327 143.321 237.665 143.983C237.004 144.644 236.107 145.016 235.171 145.017H164.799H164.798C164.506 145.018 164.217 145.079 163.949 145.197C163.681 145.314 163.441 145.486 163.243 145.702L163.243 145.702L149.925 160.231L149.924 160.232C149.858 160.304 149.778 160.362 149.689 160.402C149.6 160.441 149.504 160.462 149.406 160.462C149.318 160.462 149.23 160.445 149.147 160.413L148.965 160.878L149.144 160.411C149.012 160.36 148.898 160.27 148.817 160.153C148.737 160.036 148.694 159.896 148.695 159.754Z" stroke="black" stroke-opacity="0.2"/>
<path d="M148.965 160.878L148.978 160.844C148.978 160.844 148.978 160.844 148.979 160.844L148.965 160.878Z" fill="#3F3D56"/>
<path d="M148.965 160.878L148.978 160.844C148.978 160.844 148.978 160.844 148.979 160.844L148.965 160.878Z" stroke="black"/>
<path d="M148.965 160.878L148.978 160.844C148.978 160.844 148.978 160.844 148.979 160.844L148.965 160.878Z" stroke="black" stroke-opacity="0.2"/>
<path d="M98.2906 166.095L98.2913 166.095C99.7836 164.595 101.6 163.458 103.6 162.77C105.6 162.082 107.732 161.862 109.831 162.126C111.929 162.39 113.94 163.132 115.707 164.295C117.39 165.402 118.809 166.862 119.868 168.573C116.302 170.753 112.215 171.941 108.03 172.008C103.845 172.074 99.7231 171.018 96.0904 168.952C96.6975 167.91 97.4369 166.95 98.2906 166.095Z" fill="#376AED"/>
<path d="M98.2906 166.095L98.2913 166.095C99.7836 164.595 101.6 163.458 103.6 162.77C105.6 162.082 107.732 161.862 109.831 162.126C111.929 162.39 113.94 163.132 115.707 164.295C117.39 165.402 118.809 166.862 119.868 168.573C116.302 170.753 112.215 171.941 108.03 172.008C103.845 172.074 99.7231 171.018 96.0904 168.952C96.6975 167.91 97.4369 166.95 98.2906 166.095Z" stroke="black"/>
<path d="M98.2906 166.095L98.2913 166.095C99.7836 164.595 101.6 163.458 103.6 162.77C105.6 162.082 107.732 161.862 109.831 162.126C111.929 162.39 113.94 163.132 115.707 164.295C117.39 165.402 118.809 166.862 119.868 168.573C116.302 170.753 112.215 171.941 108.03 172.008C103.845 172.074 99.7231 171.018 96.0904 168.952C96.6975 167.91 97.4369 166.95 98.2906 166.095Z" stroke="black" stroke-opacity="0.2"/>
<path d="M118.294 144.04C118.294 150.316 113.207 155.403 106.931 155.403C100.656 155.403 95.5689 150.316 95.5689 144.04C95.5689 137.764 100.656 132.677 106.931 132.677C113.207 132.677 118.294 137.764 118.294 144.04Z" fill="#2F2E41"/>
<path d="M118.294 144.04C118.294 150.316 113.207 155.403 106.931 155.403C100.656 155.403 95.5689 150.316 95.5689 144.04C95.5689 137.764 100.656 132.677 106.931 132.677C113.207 132.677 118.294 137.764 118.294 144.04Z" stroke="black"/>
<path d="M118.294 144.04C118.294 150.316 113.207 155.403 106.931 155.403C100.656 155.403 95.5689 150.316 95.5689 144.04C95.5689 137.764 100.656 132.677 106.931 132.677C113.207 132.677 118.294 137.764 118.294 144.04Z" stroke="black" stroke-opacity="0.2"/>
<path d="M112.006 140.864C116.043 143.07 117.526 148.131 115.32 152.168C113.113 156.204 108.052 157.687 104.016 155.481C99.9799 153.274 98.4965 148.213 100.703 144.177C102.909 140.141 107.97 138.657 112.006 140.864Z" fill="#FFB8B8"/>
<path d="M112.006 140.864C116.043 143.07 117.526 148.131 115.32 152.168C113.113 156.204 108.052 157.687 104.016 155.481C99.9799 153.274 98.4965 148.213 100.703 144.177C102.909 140.141 107.97 138.657 112.006 140.864Z" stroke="black"/>
<path d="M112.006 140.864C116.043 143.07 117.526 148.131 115.32 152.168C113.113 156.204 108.052 157.687 104.016 155.481C99.9799 153.274 98.4965 148.213 100.703 144.177C102.909 140.141 107.97 138.657 112.006 140.864Z" stroke="black" stroke-opacity="0.2"/>
<path d="M105.595 144.24C103.618 144.248 101.679 143.746 99.9612 142.792C99.7133 142.049 99.9139 141.102 100.472 140.411C101.16 139.561 102.251 139.067 103.425 138.763C105.211 138.316 107.074 138.271 108.88 138.632C110.686 138.992 112.389 139.75 113.866 140.85C114.339 141.207 114.782 141.637 115.079 142.101C115.372 142.56 115.505 143.021 115.428 143.477C115.362 143.762 115.237 144.031 115.061 144.266C114.884 144.504 114.658 144.702 114.399 144.847C113.805 145.173 113.16 145.394 112.491 145.502L112.481 145.503L112.471 145.505C109.935 146.02 107.336 146.114 104.777 145.79C105.161 145.608 105.53 145.394 105.882 145.151L107.204 144.233L105.595 144.24Z" fill="#2F2E41"/>
<path d="M105.595 144.24C103.618 144.248 101.679 143.746 99.9612 142.792C99.7133 142.049 99.9139 141.102 100.472 140.411C101.16 139.561 102.251 139.067 103.425 138.763C105.211 138.316 107.074 138.271 108.88 138.632C110.686 138.992 112.389 139.75 113.866 140.85C114.339 141.207 114.782 141.637 115.079 142.101C115.372 142.56 115.505 143.021 115.428 143.477C115.362 143.762 115.237 144.031 115.061 144.266C114.884 144.504 114.658 144.702 114.399 144.847C113.805 145.173 113.16 145.394 112.491 145.502L112.481 145.503L112.471 145.505C109.935 146.02 107.336 146.114 104.777 145.79C105.161 145.608 105.53 145.394 105.882 145.151L107.204 144.233L105.595 144.24Z" stroke="black"/>
<path d="M105.595 144.24C103.618 144.248 101.679 143.746 99.9612 142.792C99.7133 142.049 99.9139 141.102 100.472 140.411C101.16 139.561 102.251 139.067 103.425 138.763C105.211 138.316 107.074 138.271 108.88 138.632C110.686 138.992 112.389 139.75 113.866 140.85C114.339 141.207 114.782 141.637 115.079 142.101C115.372 142.56 115.505 143.021 115.428 143.477C115.362 143.762 115.237 144.031 115.061 144.266C114.884 144.504 114.658 144.702 114.399 144.847C113.805 145.173 113.16 145.394 112.491 145.502L112.481 145.503L112.471 145.505C109.935 146.02 107.336 146.114 104.777 145.79C105.161 145.608 105.53 145.394 105.882 145.151L107.204 144.233L105.595 144.24Z" stroke="black" stroke-opacity="0.2"/>
<path d="M107.657 125.005L107.657 124.984C107.657 124.984 107.657 124.984 107.657 124.984L107.657 125.005Z" fill="#3F3D56"/>
<path d="M107.657 125.005L107.657 124.984C107.657 124.984 107.657 124.984 107.657 124.984L107.657 125.005Z" stroke="black"/>
<path d="M107.657 125.005L107.657 124.984C107.657 124.984 107.657 124.984 107.657 124.984L107.657 125.005Z" stroke="black" stroke-opacity="0.2"/>
<path d="M154.338 119.484C154.338 121.155 152.984 122.509 151.313 122.509C149.643 122.509 148.289 121.155 148.289 119.484C148.289 117.813 149.643 116.459 151.313 116.459C152.984 116.459 154.338 117.813 154.338 119.484Z" fill="#376AED"/>
<path d="M154.338 119.484C154.338 121.155 152.984 122.509 151.313 122.509C149.643 122.509 148.289 121.155 148.289 119.484C148.289 117.813 149.643 116.459 151.313 116.459C152.984 116.459 154.338 117.813 154.338 119.484Z" stroke="black"/>
<path d="M154.338 119.484C154.338 121.155 152.984 122.509 151.313 122.509C149.643 122.509 148.289 121.155 148.289 119.484C148.289 117.813 149.643 116.459 151.313 116.459C152.984 116.459 154.338 117.813 154.338 119.484Z" stroke="black" stroke-opacity="0.2"/>
<path d="M149.573 138.488L149.573 138.488C149.391 138.489 149.212 138.453 149.044 138.384C148.876 138.315 148.724 138.213 148.596 138.085C148.467 137.957 148.366 137.804 148.296 137.637C148.227 137.469 148.191 137.29 148.191 137.108C148.191 136.927 148.227 136.748 148.296 136.58C148.366 136.412 148.467 136.26 148.596 136.132C148.724 136.004 148.876 135.902 149.044 135.833C149.212 135.764 149.391 135.728 149.573 135.729H149.573H232.522C232.888 135.729 233.239 135.874 233.498 136.133C233.757 136.391 233.902 136.742 233.902 137.108C233.902 137.474 233.757 137.825 233.498 138.084C233.239 138.343 232.888 138.488 232.522 138.488L149.573 138.488Z" fill="#E6E6E6"/>
<path d="M149.573 138.488L149.573 138.488C149.391 138.489 149.212 138.453 149.044 138.384C148.876 138.315 148.724 138.213 148.596 138.085C148.467 137.957 148.366 137.804 148.296 137.637C148.227 137.469 148.191 137.29 148.191 137.108C148.191 136.927 148.227 136.748 148.296 136.58C148.366 136.412 148.467 136.26 148.596 136.132C148.724 136.004 148.876 135.902 149.044 135.833C149.212 135.764 149.391 135.728 149.573 135.729H149.573H232.522C232.888 135.729 233.239 135.874 233.498 136.133C233.757 136.391 233.902 136.742 233.902 137.108C233.902 137.474 233.757 137.825 233.498 138.084C233.239 138.343 232.888 138.488 232.522 138.488L149.573 138.488Z" stroke="black"/>
<path d="M149.573 138.488L149.573 138.488C149.391 138.489 149.212 138.453 149.044 138.384C148.876 138.315 148.724 138.213 148.596 138.085C148.467 137.957 148.366 137.804 148.296 137.637C148.227 137.469 148.191 137.29 148.191 137.108C148.191 136.927 148.227 136.748 148.296 136.58C148.366 136.412 148.467 136.26 148.596 136.132C148.724 136.004 148.876 135.902 149.044 135.833C149.212 135.764 149.391 135.728 149.573 135.729H149.573H232.522C232.888 135.729 233.239 135.874 233.498 136.133C233.757 136.391 233.902 136.742 233.902 137.108C233.902 137.474 233.757 137.825 233.498 138.084C233.239 138.343 232.888 138.488 232.522 138.488L149.573 138.488Z" stroke="black" stroke-opacity="0.2"/>
<path d="M149.573 130.499L149.573 130.499C149.391 130.499 149.212 130.463 149.044 130.394C148.876 130.325 148.724 130.223 148.596 130.095C148.467 129.967 148.366 129.815 148.296 129.647C148.227 129.48 148.191 129.3 148.191 129.119C148.191 128.937 148.227 128.758 148.296 128.59C148.366 128.423 148.467 128.271 148.596 128.142C148.724 128.014 148.876 127.913 149.044 127.843C149.212 127.774 149.391 127.739 149.573 127.739H149.573H205.499C205.864 127.739 206.215 127.885 206.473 128.144C206.731 128.402 206.877 128.753 206.877 129.119C206.877 129.484 206.731 129.835 206.473 130.094C206.215 130.353 205.864 130.498 205.499 130.499C205.499 130.499 205.498 130.499 205.498 130.499L149.573 130.499Z" fill="#E6E6E6"/>
<path d="M149.573 130.499L149.573 130.499C149.391 130.499 149.212 130.463 149.044 130.394C148.876 130.325 148.724 130.223 148.596 130.095C148.467 129.967 148.366 129.815 148.296 129.647C148.227 129.48 148.191 129.3 148.191 129.119C148.191 128.937 148.227 128.758 148.296 128.59C148.366 128.423 148.467 128.271 148.596 128.142C148.724 128.014 148.876 127.913 149.044 127.843C149.212 127.774 149.391 127.739 149.573 127.739H149.573H205.499C205.864 127.739 206.215 127.885 206.473 128.144C206.731 128.402 206.877 128.753 206.877 129.119C206.877 129.484 206.731 129.835 206.473 130.094C206.215 130.353 205.864 130.498 205.499 130.499C205.499 130.499 205.498 130.499 205.498 130.499L149.573 130.499Z" stroke="black"/>
<path d="M149.573 130.499L149.573 130.499C149.391 130.499 149.212 130.463 149.044 130.394C148.876 130.325 148.724 130.223 148.596 130.095C148.467 129.967 148.366 129.815 148.296 129.647C148.227 129.48 148.191 129.3 148.191 129.119C148.191 128.937 148.227 128.758 148.296 128.59C148.366 128.423 148.467 128.271 148.596 128.142C148.724 128.014 148.876 127.913 149.044 127.843C149.212 127.774 149.391 127.739 149.573 127.739H149.573H205.499C205.864 127.739 206.215 127.885 206.473 128.144C206.731 128.402 206.877 128.753 206.877 129.119C206.877 129.484 206.731 129.835 206.473 130.094C206.215 130.353 205.864 130.498 205.499 130.499C205.499 130.499 205.498 130.499 205.498 130.499L149.573 130.499Z" stroke="black" stroke-opacity="0.2"/>
<path d="M144.09 162.551C144.145 162.545 144.2 162.538 144.257 162.532C145.423 162.403 147.048 162.321 148.852 162.321C150.655 162.321 152.28 162.403 153.447 162.532C153.503 162.538 153.559 162.545 153.613 162.551C153.559 162.558 153.503 162.564 153.447 162.57C152.28 162.7 150.655 162.781 148.852 162.781C147.048 162.781 145.423 162.7 144.257 162.57C144.2 162.564 144.145 162.558 144.09 162.551Z" fill="#F2F2F2"/>
<path d="M144.09 162.551C144.145 162.545 144.2 162.538 144.257 162.532C145.423 162.403 147.048 162.321 148.852 162.321C150.655 162.321 152.28 162.403 153.447 162.532C153.503 162.538 153.559 162.545 153.613 162.551C153.559 162.558 153.503 162.564 153.447 162.57C152.28 162.7 150.655 162.781 148.852 162.781C147.048 162.781 145.423 162.7 144.257 162.57C144.2 162.564 144.145 162.558 144.09 162.551Z" stroke="black"/>
<path d="M144.09 162.551C144.145 162.545 144.2 162.538 144.257 162.532C145.423 162.403 147.048 162.321 148.852 162.321C150.655 162.321 152.28 162.403 153.447 162.532C153.503 162.538 153.559 162.545 153.613 162.551C153.559 162.558 153.503 162.564 153.447 162.57C152.28 162.7 150.655 162.781 148.852 162.781C147.048 162.781 145.423 162.7 144.257 162.57C144.2 162.564 144.145 162.558 144.09 162.551Z" stroke="black" stroke-opacity="0.2"/>
<path d="M85.3165 76.6674C85.3707 76.6609 85.4262 76.6545 85.4829 76.6482C86.6496 76.5187 88.2743 76.4375 90.0779 76.4375C91.8814 76.4375 93.5062 76.5187 94.6728 76.6482C94.7295 76.6545 94.785 76.6609 94.8392 76.6674C94.785 76.6739 94.7295 76.6803 94.6728 76.6866C93.5062 76.8161 91.8814 76.8973 90.0779 76.8973C88.2743 76.8973 86.6496 76.8161 85.4829 76.6866C85.4262 76.6803 85.3707 76.6739 85.3165 76.6674Z" fill="#F2F2F2"/>
<path d="M85.3165 76.6674C85.3707 76.6609 85.4262 76.6545 85.4829 76.6482C86.6496 76.5187 88.2743 76.4375 90.0779 76.4375C91.8814 76.4375 93.5062 76.5187 94.6728 76.6482C94.7295 76.6545 94.785 76.6609 94.8392 76.6674C94.785 76.6739 94.7295 76.6803 94.6728 76.6866C93.5062 76.8161 91.8814 76.8973 90.0779 76.8973C88.2743 76.8973 86.6496 76.8161 85.4829 76.6866C85.4262 76.6803 85.3707 76.6739 85.3165 76.6674Z" stroke="black"/>
<path d="M85.3165 76.6674C85.3707 76.6609 85.4262 76.6545 85.4829 76.6482C86.6496 76.5187 88.2743 76.4375 90.0779 76.4375C91.8814 76.4375 93.5062 76.5187 94.6728 76.6482C94.7295 76.6545 94.785 76.6609 94.8392 76.6674C94.785 76.6739 94.7295 76.6803 94.6728 76.6866C93.5062 76.8161 91.8814 76.8973 90.0779 76.8973C88.2743 76.8973 86.6496 76.8161 85.4829 76.6866C85.4262 76.6803 85.3707 76.6739 85.3165 76.6674Z" stroke="black" stroke-opacity="0.2"/>
</svg>
