<svg width="203" height="200" viewBox="0 0 203 200" fill="none" xmlns="http://www.w3.org/2000/svg">
<path d="M18.9373 158.476L1.4671 152.374C-0.456227 142.85 -0.0249487 133 2.72351 123.681C9.35104 139.632 30.022 144.092 41.4992 157.003C45.048 161.057 47.6387 165.858 49.0794 171.049C50.52 176.24 50.7737 181.689 49.8216 186.992L53.1668 199.68C44.5242 198.689 36.1992 195.837 28.7654 191.32C21.3316 186.802 14.9657 180.728 10.1063 173.514C7.4203 169.44 5.25814 165.045 3.67085 160.431C11.2121 159.896 18.9373 158.476 18.9373 158.476Z" fill="#F2F2F2"/>
<path d="M137.711 13.7254V153.202L137.226 159.009C136.376 169.09 132.105 178.578 125.12 185.898C124.129 186.934 123.093 187.915 122.011 188.84C120.68 189.989 119.279 191.054 117.818 192.032C116.982 192.594 116.125 193.124 115.254 193.626C110.189 196.551 104.594 198.442 98.7926 199.192H57.2226C53.9145 199.194 50.7176 197.998 48.2244 195.824C46.9902 194.75 45.9558 193.466 45.1689 192.032C44.0694 190.02 43.4944 187.763 43.4971 185.47V13.7254C43.5017 10.0866 44.9496 6.59817 47.5233 4.02517C50.097 1.45217 53.5864 0.00462504 57.2261 0H123.985C124.143 0 124.298 0.00350736 124.456 0.00701858C124.558 0.0105298 124.66 0.0140421 124.761 0.0245758C124.898 0.028087 125.035 0.0386213 125.169 0.0526662C125.341 0.0631998 125.51 0.0807396 125.678 0.101807C125.833 0.122874 125.987 0.143942 126.142 0.168521C126.173 0.172032 126.201 0.179052 126.233 0.182564C126.43 0.214165 126.626 0.249276 126.82 0.291411C127.013 0.330034 127.209 0.375682 127.399 0.424839C127.536 0.459951 127.677 0.498571 127.814 0.537195C127.817 0.537195 127.824 0.54071 127.828 0.54071C128.232 0.660091 128.632 0.797025 129.025 0.955047C129.148 1.00068 129.271 1.05336 129.391 1.10603L129.443 1.1271C129.542 1.16923 129.636 1.21137 129.731 1.25701C130.016 1.38693 130.297 1.53089 130.574 1.68187C131.03 1.93343 131.472 2.21008 131.898 2.51054C132.035 2.60532 132.169 2.70717 132.299 2.80899C132.407 2.88975 132.516 2.97402 132.622 3.06531C132.631 3.06997 132.639 3.07588 132.646 3.08287C132.66 3.0934 132.674 3.10744 132.688 3.11798C132.783 3.19171 132.875 3.26896 132.962 3.34621C133.134 3.49368 133.303 3.64817 133.468 3.80618C133.514 3.84831 133.559 3.89045 133.605 3.93609C133.651 3.97823 133.693 4.02387 133.739 4.06952C133.784 4.11165 133.826 4.1573 133.869 4.19943C133.894 4.22106 133.917 4.24453 133.939 4.26966C134.065 4.40309 134.188 4.54002 134.308 4.67696C134.459 4.84901 134.606 5.02457 134.743 5.20364C134.862 5.35111 134.975 5.49859 135.084 5.64957C135.186 5.78649 135.28 5.92345 135.375 6.0639C135.401 6.09883 135.424 6.13517 135.445 6.17274C135.544 6.3167 135.635 6.46417 135.726 6.61165C135.955 6.98383 136.162 7.37007 136.352 7.75981C136.422 7.90728 136.489 8.05124 136.552 8.19871C136.633 8.37779 136.706 8.55686 136.777 8.73593C136.805 8.80264 136.829 8.87287 136.854 8.93958C136.893 9.04141 136.928 9.14324 136.963 9.24506C137.001 9.35742 137.04 9.47329 137.075 9.58565L137.159 9.85952C137.209 10.0246 137.251 10.1861 137.293 10.3511C137.317 10.4494 137.342 10.5477 137.363 10.6495C137.528 11.3666 137.635 12.0958 137.683 12.83C137.686 12.9213 137.693 13.0091 137.697 13.1004C137.707 13.3075 137.711 13.5147 137.711 13.7254Z" fill="#3F3D56"/>
<path d="M42.5447 62.4888C42.1351 62.4883 41.7424 62.3254 41.4528 62.0359C41.1632 61.7463 41.0002 61.3538 40.9998 60.9443V50.4414C40.9995 50.2384 41.0392 50.0373 41.1167 49.8496C41.1942 49.662 41.308 49.4914 41.4514 49.3477C41.5949 49.2041 41.7653 49.0901 41.9529 49.0123C42.1405 48.9346 42.3416 48.8945 42.5447 48.8945C42.7478 48.8945 42.9489 48.9346 43.1365 49.0123C43.3241 49.0901 43.4945 49.2041 43.638 49.3477C43.7815 49.4914 43.8952 49.662 43.9727 49.8496C44.0502 50.0373 44.09 50.2384 44.0897 50.4414V60.9443C44.0892 61.3538 43.9263 61.7463 43.6366 62.0359C43.347 62.3254 42.9543 62.4883 42.5447 62.4888Z" fill="#3F3D56"/>
<path d="M42.2357 42.1009C41.8261 42.1004 41.4335 41.9375 41.1438 41.6479C40.8542 41.3584 40.6913 40.9658 40.6908 40.5563V30.0534C40.6914 29.6442 40.8545 29.2519 41.1441 28.9628C41.4338 28.6736 41.8264 28.5112 42.2357 28.5112C42.6451 28.5112 43.0377 28.6736 43.3274 28.9628C43.617 29.2519 43.7801 29.6442 43.7807 30.0534V40.5563C43.7802 40.9658 43.6173 41.3584 43.3277 41.6479C43.038 41.9375 42.6453 42.1004 42.2357 42.1009Z" fill="#3F3D56"/>
<path d="M80.1705 5.10264C80.171 4.69315 80.3339 4.30057 80.6236 4.01102C80.9132 3.72146 81.3059 3.55858 81.7155 3.55811H92.2212C92.6309 3.55811 93.0239 3.72083 93.3136 4.01049C93.6034 4.30015 93.7661 4.69301 93.7661 5.10264C93.7661 5.51228 93.6034 5.90514 93.3136 6.1948C93.0239 6.48446 92.6309 6.64718 92.2212 6.64718H81.7155C81.3059 6.6467 80.9132 6.48382 80.6236 6.19426C80.3339 5.90471 80.171 5.51213 80.1705 5.10264Z" fill="white"/>
<path d="M42.5447 80.4053C42.1351 80.4048 41.7424 80.242 41.4528 79.9524C41.1632 79.6628 41.0002 79.2703 40.9998 78.8608V68.3579C40.9995 68.1549 41.0392 67.9538 41.1167 67.7661C41.1942 67.5785 41.308 67.4079 41.4514 67.2642C41.5949 67.1206 41.7653 67.0066 41.9529 66.9288C42.1405 66.8511 42.3416 66.811 42.5447 66.811C42.7478 66.811 42.9489 66.8511 43.1365 66.9288C43.3241 67.0066 43.4945 67.1206 43.638 67.2642C43.7815 67.4079 43.8952 67.5785 43.9727 67.7661C44.0502 67.9538 44.09 68.1549 44.0897 68.3579V78.8608C44.0892 79.2703 43.9263 79.6628 43.6366 79.9524C43.347 80.242 42.9543 80.4048 42.5447 80.4053Z" fill="#3F3D56"/>
<path d="M138.778 57.5826C138.368 57.5821 137.976 57.4192 137.686 57.1296C137.396 56.8401 137.234 56.4475 137.233 56.038V45.5352C137.233 45.3321 137.272 45.131 137.35 44.9434C137.427 44.7557 137.541 44.5852 137.685 44.4415C137.828 44.2978 137.999 44.1838 138.186 44.1061C138.374 44.0283 138.575 43.9883 138.778 43.9883C138.981 43.9883 139.182 44.0283 139.37 44.1061C139.557 44.1838 139.728 44.2978 139.871 44.4415C140.015 44.5852 140.128 44.7557 140.206 44.9434C140.284 45.131 140.323 45.3321 140.323 45.5352V56.038C140.322 56.4475 140.16 56.8401 139.87 57.1296C139.58 57.4192 139.188 57.5821 138.778 57.5826Z" fill="#3F3D56"/>
<path d="M98.0919 6.64718C98.9452 6.64718 99.6369 5.95567 99.6369 5.10264C99.6369 4.24962 98.9452 3.55811 98.0919 3.55811C97.2387 3.55811 96.547 4.24962 96.547 5.10264C96.547 5.95567 97.2387 6.64718 98.0919 6.64718Z" fill="white"/>
<path d="M130.877 18.6808H50.3354C50.2421 18.6787 50.1534 18.6403 50.0883 18.5736C50.0231 18.507 49.9866 18.4175 49.9866 18.3243C49.9866 18.2311 50.0231 18.1416 50.0883 18.0749C50.1534 18.0083 50.2421 17.9698 50.3354 17.9678H130.877C130.971 17.9698 131.059 18.0083 131.125 18.0749C131.19 18.1416 131.226 18.2311 131.226 18.3243C131.226 18.4175 131.19 18.507 131.125 18.5736C131.059 18.6403 130.971 18.6787 130.877 18.6808Z" fill="white"/>
<path d="M56.4395 16.1473C57.5937 16.1473 58.5294 15.191 58.5294 14.0114C58.5294 12.8318 57.5937 11.8755 56.4395 11.8755C55.2853 11.8755 54.3496 12.8318 54.3496 14.0114C54.3496 15.191 55.2853 16.1473 56.4395 16.1473Z" fill="white"/>
<path d="M63.6592 16.1473C64.8134 16.1473 65.7491 15.191 65.7491 14.0114C65.7491 12.8318 64.8134 11.8755 63.6592 11.8755C62.505 11.8755 61.5693 12.8318 61.5693 14.0114C61.5693 15.191 62.505 16.1473 63.6592 16.1473Z" fill="white"/>
<path d="M70.8788 16.1473C72.033 16.1473 72.9687 15.191 72.9687 14.0114C72.9687 12.8318 72.033 11.8755 70.8788 11.8755C69.7246 11.8755 68.7889 12.8318 68.7889 14.0114C68.7889 15.191 69.7246 16.1473 70.8788 16.1473Z" fill="white"/>
<path d="M126.531 12.4048H121.402C121.301 12.4068 121.204 12.4486 121.133 12.5212C121.061 12.5938 121.022 12.6914 121.022 12.793C121.022 12.8946 121.061 12.9922 121.133 13.0648C121.204 13.1374 121.301 13.1792 121.402 13.1812H126.531C126.632 13.1792 126.729 13.1374 126.8 13.0648C126.871 12.9922 126.911 12.8946 126.911 12.793C126.911 12.6914 126.871 12.5938 126.8 12.5212C126.729 12.4486 126.632 12.4068 126.531 12.4048Z" fill="white"/>
<path d="M126.531 13.8623H121.402C121.301 13.8643 121.204 13.9061 121.133 13.9787C121.061 14.0513 121.022 14.1489 121.022 14.2505C121.022 14.3522 121.061 14.4497 121.133 14.5223C121.204 14.5949 121.301 14.6367 121.402 14.6387H126.531C126.632 14.6367 126.729 14.5949 126.8 14.5223C126.871 14.4497 126.911 14.3522 126.911 14.2505C126.911 14.1489 126.871 14.0513 126.8 13.9787C126.729 13.9061 126.632 13.8643 126.531 13.8623Z" fill="white"/>
<path d="M126.531 15.3174H121.402C121.301 15.3194 121.204 15.3612 121.133 15.4338C121.061 15.5064 121.022 15.604 121.022 15.7056C121.022 15.8072 121.061 15.9048 121.133 15.9774C121.204 16.05 121.301 16.0918 121.402 16.0938H126.531C126.632 16.0918 126.729 16.05 126.8 15.9774C126.871 15.9048 126.911 15.8072 126.911 15.7056C126.911 15.604 126.871 15.5064 126.8 15.4338C126.729 15.3612 126.632 15.3194 126.531 15.3174Z" fill="white"/>
<path d="M69.5203 73.1703C69.5552 73.6681 69.7019 74.1515 69.9494 74.5848C70.5026 75.4876 71.3397 76.1816 72.3295 76.5582C73.5334 77.0507 74.8754 77.0659 76.153 76.9561C77.3397 76.8541 78.5143 76.6177 79.7054 76.5689C80.6265 76.5395 81.5485 76.5614 82.4672 76.6348C84.2494 76.7613 86.0243 76.9959 87.7878 77.2804C88.2654 77.3565 88.742 77.4382 89.2175 77.5257C89.2625 77.5296 89.3069 77.5379 89.3503 77.5503C89.3589 77.5539 89.3728 77.5511 89.3807 77.5561C89.3951 77.5651 89.3227 77.5331 89.3666 77.5694C89.4278 77.6336 89.4823 77.7038 89.5294 77.7789L90.1807 78.6168C90.3518 78.8804 90.5537 79.1226 90.7822 79.3384C90.9524 79.4699 91.1577 79.548 91.3722 79.563C91.5868 79.5779 91.801 79.529 91.9878 79.4224C92.1829 79.2992 92.3385 79.1225 92.4361 78.9133C92.5859 78.6386 92.7647 78.3807 92.9693 78.144C93.7441 77.2403 94.821 76.6845 95.7217 75.9241C96.1579 75.5709 96.5303 75.1454 96.8225 74.6662C97.0717 74.2325 97.2267 73.7511 97.2773 73.2535C97.3564 72.2337 97.1023 71.2158 96.5533 70.3527C95.9858 69.4291 95.1706 68.6832 94.2003 68.1996C93.0991 67.6714 91.9116 67.346 90.6949 67.2392C89.4079 67.1177 88.1147 67.0749 86.8225 67.111C85.3748 67.1271 83.9297 67.1908 82.4872 67.302C81.0428 67.4137 79.604 67.5726 78.1709 67.7786C76.787 67.9534 75.4139 68.2049 74.058 68.532C72.8432 68.7926 71.7182 69.3673 70.7952 70.1988C70.3851 70.5762 70.0596 71.0361 69.8398 71.5482C69.6201 72.0604 69.5112 72.6132 69.5203 73.1703Z" fill="#376AED"/>
<path d="M89.5999 69.7954H75.8961C75.6246 69.7958 75.3643 69.9038 75.1723 70.0958C74.9803 70.2877 74.8722 70.548 74.8718 70.8195V70.9846C74.8722 71.2561 74.9803 71.5163 75.1723 71.7083C75.3643 71.9002 75.6246 72.0083 75.8961 72.0087H89.5999C89.8714 72.0083 90.1317 71.9002 90.3238 71.7083C90.5158 71.5163 90.6238 71.2561 90.6242 70.9846V70.8195C90.6238 70.548 90.5157 70.2877 90.3237 70.0958C90.1317 69.9038 89.8714 69.7958 89.5999 69.7954Z" fill="white"/>
<path d="M89.5999 72.605H75.8961C75.6246 72.6054 75.3643 72.7134 75.1723 72.9054C74.9803 73.0973 74.8722 73.3576 74.8718 73.629V73.7942C74.8722 74.0656 74.9803 74.3259 75.1723 74.5179C75.3643 74.7098 75.6246 74.8178 75.8961 74.8182H89.5999C89.8714 74.8178 90.1317 74.7098 90.3238 74.5179C90.5158 74.3259 90.6238 74.0656 90.6242 73.7942V73.629C90.6238 73.3576 90.5157 73.0973 90.3237 72.9054C90.1317 72.7134 89.8714 72.6054 89.5999 72.605Z" fill="white"/>
<path d="M118.053 52.8051C118.018 53.3028 117.871 53.7863 117.623 54.2195C117.07 55.1224 116.233 55.8164 115.243 56.193C114.039 56.6855 112.697 56.7007 111.42 56.5909C110.233 56.4889 109.058 56.2524 107.867 56.2037C106.946 56.1742 106.024 56.1962 105.106 56.2696C103.323 56.396 101.548 56.6307 99.785 56.9152C99.3074 56.9913 98.8309 57.073 98.3553 57.1604C98.3103 57.1644 98.2659 57.1727 98.2225 57.1851C98.2139 57.1886 98.2 57.1859 98.1921 57.1908C98.1777 57.1999 98.2501 57.1679 98.2062 57.2042C98.145 57.2684 98.0905 57.3385 98.0434 57.4137L97.3921 58.2516C97.221 58.5151 97.0191 58.7574 96.7907 58.9732C96.6204 59.1047 96.4151 59.1828 96.2006 59.1977C95.986 59.2127 95.7718 59.1638 95.585 59.0572C95.3899 58.9339 95.2343 58.7572 95.1367 58.5481C94.9869 58.2734 94.8082 58.0155 94.6035 57.7788C93.8287 56.8751 92.7518 56.3193 91.8511 55.5589C91.4149 55.2057 91.0425 54.7802 90.7503 54.3009C90.5011 53.8673 90.3461 53.3859 90.2955 52.8883C90.2164 51.8685 90.4705 50.8506 91.0195 49.9875C91.587 49.0639 92.4022 48.318 93.3725 47.8344C94.4737 47.3061 95.6612 46.9808 96.8779 46.874C98.1649 46.7525 99.4581 46.7097 100.75 46.7458C102.198 46.7619 103.643 46.8255 105.086 46.9367C106.53 47.0485 107.969 47.2074 109.402 47.4134C110.786 47.5881 112.159 47.8397 113.515 48.1667C114.73 48.4274 115.855 49.0021 116.778 49.8336C117.188 50.211 117.513 50.6709 117.733 51.183C117.953 51.6951 118.062 52.2479 118.053 52.8051Z" fill="#FFA934"/>
<path d="M96.9486 50.4547V50.6199C96.949 50.8913 97.0571 51.1516 97.2491 51.3435C97.4411 51.5355 97.7014 51.6435 97.9729 51.6439H111.677C111.948 51.6435 112.209 51.5355 112.401 51.3435C112.593 51.1516 112.701 50.8913 112.701 50.6199V50.4547C112.701 50.1832 112.593 49.923 112.401 49.731C112.209 49.5391 111.948 49.4311 111.677 49.4307H97.9729C97.7014 49.4311 97.4411 49.5391 97.2491 49.731C97.0571 49.923 96.949 50.1832 96.9486 50.4547Z" fill="white"/>
<path d="M96.9486 53.2638V53.4289C96.949 53.7004 97.0571 53.9607 97.2491 54.1526C97.4411 54.3446 97.7014 54.4526 97.9729 54.453H111.677C111.948 54.4526 112.209 54.3446 112.401 54.1526C112.593 53.9607 112.701 53.7004 112.701 53.4289V53.2638C112.701 52.9923 112.593 52.7321 112.401 52.5401C112.209 52.3482 111.948 52.2402 111.677 52.2397H97.9729C97.7014 52.2401 97.4411 52.3482 97.2491 52.5401C97.0571 52.7321 96.949 52.9923 96.9486 53.2638Z" fill="white"/>
<path d="M184.582 194.878L180.231 194.877L178.161 178.098L184.583 178.098L184.582 194.878Z" fill="#A0616A"/>
<path d="M184.466 193.456L179.823 191.57L179.686 191.514L177.122 193.456C175.715 193.456 174.363 193.999 173.346 194.971C172.33 195.944 171.729 197.272 171.668 198.677C171.661 198.754 171.661 198.835 171.661 198.916V199.095H185.692V193.456H184.466Z" fill="#2F2E41"/>
<path d="M174.391 190.829L170.287 192.273L162.763 177.131L168.821 175L174.391 190.829Z" fill="#A0616A"/>
<path d="M173.81 189.526L168.804 189.288L168.656 189.281L166.883 191.963C165.555 192.43 164.459 193.391 163.824 194.646C163.188 195.901 163.062 197.352 163.471 198.698C163.49 198.773 163.517 198.85 163.543 198.926L163.603 199.095L176.839 194.439L174.966 189.12L173.81 189.526Z" fill="#2F2E41"/>
<path d="M186.12 122.526C190.101 122.372 185.17 154.089 185.17 154.089C185.17 154.089 186.612 181.934 186.306 183.396C186.001 184.857 186.268 188.798 186.268 188.798C185.488 187.379 177.441 188.45 177.441 188.45L176.346 160.228L170.757 137.616L163.009 152.774L170.435 176.039C170.435 176.039 173.443 178.821 173.123 179.921C172.803 181.02 164.925 183.5 163.478 183.556C162.03 183.612 162.684 181.775 162.614 179.966C162.543 178.157 155.731 161.39 153.335 155.685C150.939 149.98 152.802 141.936 154.025 136.091C155.248 130.246 161.683 119.276 161.683 119.276C169.67 110.27 182.139 122.681 186.12 122.526Z" fill="#2F2E41"/>
<path d="M184.052 127.611C174.18 127.611 168.739 125.635 165.85 123.871C162.317 121.714 161.713 119.439 161.689 119.343L161.682 119.316L162.026 114.99L162.176 114.653C162.869 113.103 162.961 111.35 162.434 109.735L162.423 109.702L162.426 109.667L164.734 79.7359L172.904 77.0607L175.28 74.6735L185.861 74.52L187.336 77.5082L195.677 80.6477L191.579 105.035L189.615 108.421L190.405 112.109L190.4 112.142L187.822 127.521L187.681 127.527C186.409 127.584 185.2 127.612 184.052 127.611Z" fill="#E6E6E6"/>
<path d="M188.168 64.4517C187.85 66.7661 186.627 68.8599 184.766 70.273C182.905 71.686 180.559 72.3027 178.244 71.9877C175.928 71.6726 173.833 70.4516 172.417 68.5927C171.002 66.7339 170.382 64.3894 170.695 62.0742L170.712 61.9491C171.077 59.6648 172.326 57.6157 174.189 56.2437C176.052 54.8717 178.38 54.2868 180.67 54.6152C182.96 54.9435 185.03 56.1589 186.432 57.999C187.834 59.8391 188.457 62.1565 188.165 64.4513L188.168 64.4517Z" fill="#A0616A"/>
<path d="M185.924 68.9919C186.377 68.0723 186.842 67.0851 186.715 66.0681C186.587 65.0511 185.59 64.0791 184.61 64.3813C184.024 64.562 183.582 65.1403 182.969 65.1699C182.127 65.2107 181.644 64.2467 181.381 63.4452L180.313 60.1809C179.288 60.98 178.098 61.5429 176.83 61.8295C175.562 62.116 174.246 62.1191 172.976 61.8385C171.984 61.6119 170.983 61.1699 170.401 60.3356C169.819 59.5014 169.823 58.2073 170.621 57.5764C171.012 57.267 171.532 57.1495 171.906 56.8194C172.138 56.6147 172.298 56.3407 172.362 56.0381C172.426 55.7355 172.391 55.4202 172.262 55.1391C172.133 54.858 171.917 54.6258 171.646 54.477C171.374 54.3282 171.062 54.2707 170.756 54.313L173.445 53.9769L172.644 52.5281C172.948 52.7354 173.293 52.8767 173.655 52.9432C174.018 53.0097 174.39 52.9998 174.748 52.9141C175.472 52.7839 176.153 52.486 176.861 52.2874C178.577 51.8494 180.388 51.9833 182.021 52.6687C183.654 53.354 185.018 54.5535 185.906 56.0847C186.568 55.8638 187.281 55.8491 187.952 56.0426C188.622 56.2361 189.218 56.6286 189.66 57.1682C190.38 58.0817 190.575 59.3007 190.603 60.4633C190.656 62.7556 190.156 65.0269 189.146 67.0855C188.856 67.7394 188.44 68.3295 187.921 68.822C187.66 69.0662 187.349 69.2503 187.009 69.3615C186.669 69.4726 186.309 69.508 185.954 69.4652" fill="#2F2E41"/>
<path d="M86.2284 148.101C86.1869 148.101 86.1454 148.1 86.1035 148.098C85.6145 148.08 85.1371 147.945 84.7119 147.703C84.2866 147.461 83.926 147.12 83.6609 146.709C81.6748 143.742 79.2375 141.102 76.4369 138.886C74.7416 137.532 72.9699 136.272 71.2568 135.054C66.837 131.912 62.6747 128.953 60.3642 124.864C55.3267 115.949 61.2592 103.531 69.7343 97.9618C79.2403 91.7158 91.7439 90.7361 103.84 90.6077C105.097 90.5944 106.355 90.5878 107.613 90.5879C129.408 90.5962 151.156 92.5843 172.59 96.5276C179.718 97.8422 187.178 99.4526 193.173 103.361C199.133 107.246 202.756 113.364 202.402 118.948C201.886 127.1 193.243 133.191 185.372 134.783C177.87 136.3 170.076 135.275 161.825 134.19C160.004 133.95 158.121 133.702 156.258 133.487C136.017 131.148 97.994 138.357 96.3854 138.665L94.7894 138.971L88.597 146.937C88.3185 147.301 87.9598 147.595 87.549 147.796C87.1381 147.998 86.6862 148.102 86.2284 148.101Z" fill="#FFA934"/>
<path d="M176.362 108.334H90.812C90.3183 108.334 89.8448 108.138 89.4958 107.789C89.1467 107.44 88.9506 106.967 88.9506 106.473C88.9506 105.98 89.1467 105.506 89.4958 105.157C89.8448 104.808 90.3183 104.612 90.812 104.612H176.362C176.856 104.612 177.33 104.808 177.679 105.157C178.028 105.506 178.224 105.98 178.224 106.473C178.224 106.967 178.028 107.44 177.679 107.789C177.33 108.138 176.856 108.334 176.362 108.334Z" fill="white"/>
<path d="M176.363 119.756H90.812C90.5674 119.757 90.3252 119.709 90.099 119.616C89.8729 119.523 89.6674 119.386 89.4942 119.213C89.321 119.041 89.1835 118.836 89.0896 118.61C88.9957 118.384 88.9473 118.142 88.947 117.898C88.9468 117.653 88.9947 117.411 89.0881 117.185C89.1815 116.959 89.3186 116.754 89.4914 116.58C89.6643 116.407 89.8695 116.27 90.0954 116.177C90.3214 116.083 90.5635 116.035 90.8081 116.035H176.363C176.856 116.035 177.329 116.232 177.677 116.581C178.026 116.93 178.221 117.402 178.221 117.896C178.221 118.389 178.026 118.862 177.677 119.211C177.329 119.559 176.856 119.756 176.363 119.756Z" fill="white"/>
<path d="M100.782 131.179H90.812C90.3187 131.178 89.8459 130.982 89.4974 130.633C89.1489 130.284 88.9531 129.811 88.9531 129.318C88.9531 128.825 89.1489 128.352 89.4974 128.003C89.8459 127.654 90.3187 127.458 90.812 127.457H100.782C101.275 127.458 101.748 127.654 102.096 128.003C102.445 128.352 102.64 128.825 102.64 129.318C102.64 129.811 102.445 130.284 102.096 130.633C101.748 130.982 101.275 131.178 100.782 131.179Z" fill="white"/>
<path d="M183.403 137.611C183.917 137.411 184.382 137.101 184.764 136.702C185.145 136.303 185.435 135.825 185.612 135.302C185.789 134.779 185.849 134.224 185.788 133.675C185.727 133.126 185.547 132.598 185.259 132.126L194.571 99.0161L186.401 98.1626L179.817 130.977C179.057 131.512 178.519 132.308 178.307 133.212C178.094 134.117 178.22 135.069 178.662 135.886C179.104 136.704 179.831 137.331 180.705 137.649C181.578 137.967 182.538 137.953 183.403 137.611Z" fill="#A0616A"/>
<path d="M195.948 80.8405C195.948 80.8405 197.943 80.9122 196.957 85.0223C196.168 88.3127 193.27 108.954 191.004 113.07C191.493 113.511 191.822 114.102 191.938 114.75C192.055 115.398 191.952 116.066 191.647 116.65L182.618 112.927C181.868 110.845 182.449 108.955 183.302 108.788L184.357 102.768L185.911 82.5734L194.508 80.7632L195.948 80.8405Z" fill="#E6E6E6"/>
<path d="M146.894 134.923C146.563 134.482 146.332 133.973 146.219 133.433C146.105 132.892 146.112 132.334 146.237 131.796C146.363 131.259 146.605 130.755 146.947 130.321C147.288 129.888 147.721 129.534 148.214 129.285L157.788 96.25L165.178 99.8368L153.443 131.181C153.806 132.037 153.842 132.996 153.545 133.877C153.248 134.758 152.638 135.499 151.831 135.96C151.024 136.421 150.075 136.571 149.166 136.379C148.256 136.188 147.448 135.67 146.894 134.923V134.923Z" fill="#A0616A"/>
<path d="M166.216 80.0861C166.216 80.0861 164.484 79.0945 163.151 83.1055C162.084 86.3165 153.646 105.377 153.397 110.068C152.749 110.184 152.157 110.513 151.716 111.002C151.275 111.491 151.009 112.113 150.961 112.769L160.595 114.372C162.331 113 162.836 111.089 162.2 110.497L164.482 104.827L173.826 86.855L167.48 80.7806L166.216 80.0861Z" fill="#E6E6E6"/>
<path d="M87.0524 181.337C84.3632 181.337 81.7345 180.54 79.4985 179.046C77.2626 177.553 75.5199 175.43 74.4908 172.946C73.4617 170.462 73.1924 167.729 73.7171 165.092C74.2417 162.456 75.5366 160.034 77.4382 158.133C79.3397 156.232 81.7624 154.937 84.3998 154.413C87.0373 153.888 89.7712 154.157 92.2556 155.186C94.7401 156.215 96.8635 157.957 98.3576 160.192C99.8516 162.428 100.649 165.056 100.649 167.744C100.645 171.348 99.2111 174.803 96.6622 177.351C94.1132 179.9 90.6572 181.333 87.0524 181.337ZM87.0524 154.854C84.5022 154.854 82.0092 155.61 79.8888 157.026C77.7684 158.443 76.1157 160.456 75.1398 162.811C74.1638 165.167 73.9085 167.759 74.406 170.259C74.9035 172.76 76.1316 175.057 77.9349 176.859C79.7381 178.662 82.0357 179.89 84.5369 180.387C87.0381 180.885 89.6307 180.629 91.9868 179.654C94.3429 178.678 96.3567 177.026 97.7735 174.906C99.1903 172.786 99.9466 170.294 99.9466 167.744C99.9427 164.327 98.583 161.05 96.1657 158.634C93.7484 156.217 90.471 154.858 87.0524 154.854Z" fill="white"/>
<path d="M86.0608 173.037C86.0326 173.037 86.0044 173.036 85.9761 173.034C85.7267 173.022 85.4828 172.956 85.2611 172.841C85.0395 172.726 84.8454 172.564 84.6921 172.367L82.4786 169.522C82.3388 169.343 82.2358 169.137 82.1754 168.918C82.115 168.699 82.0984 168.469 82.1266 168.244C82.1548 168.018 82.2273 167.8 82.3398 167.602C82.4523 167.404 82.6027 167.231 82.7823 167.091L82.862 167.029C83.0416 166.889 83.2471 166.786 83.4666 166.726C83.6861 166.665 83.9153 166.649 84.1412 166.677C84.3672 166.705 84.5853 166.778 84.7832 166.89C84.981 167.003 85.1548 167.153 85.2945 167.333C85.4063 167.476 85.5478 167.594 85.7093 167.678C85.8708 167.762 86.0485 167.81 86.2302 167.818C86.412 167.827 86.5935 167.797 86.7623 167.729C86.9312 167.661 87.0835 167.558 87.2087 167.426L91.703 162.682C92.0194 162.349 92.4551 162.155 92.9144 162.143C93.3737 162.13 93.8192 162.3 94.1533 162.616L94.2269 162.686C94.3922 162.843 94.525 163.03 94.6178 163.238C94.7105 163.446 94.7615 163.67 94.7676 163.897C94.7737 164.125 94.735 164.351 94.6536 164.563C94.5722 164.776 94.4497 164.97 94.2931 165.135L87.3185 172.495C87.1567 172.666 86.9617 172.802 86.7454 172.896C86.5292 172.989 86.2963 173.037 86.0608 173.037Z" fill="#376AED"/>
</svg>
