<svg width="169" height="200" viewBox="0 0 169 200" fill="none" xmlns="http://www.w3.org/2000/svg">
<path d="M161.249 47.4617H160.154V17.3993C160.154 15.1144 159.705 12.8519 158.833 10.7409C157.96 8.62991 156.681 6.71182 155.069 5.09615C153.457 3.48047 151.544 2.19884 149.438 1.32445C147.331 0.450048 145.074 1.0812e-06 142.794 0H79.2483C74.6443 -1.01896e-05 70.2288 1.83311 66.9732 5.09611C63.7176 8.3591 61.8887 12.7847 61.8887 17.3993V182.324C61.8887 186.938 63.7176 191.364 66.9732 194.627C70.2287 197.89 74.6442 199.723 79.2483 199.723H142.794C147.398 199.723 151.814 197.89 155.069 194.627C158.325 191.364 160.154 186.939 160.154 182.324V68.8606H161.249L161.249 47.4617Z" fill="#3F3D56"/>
<path d="M156.459 17.5206V182.202C156.459 185.649 155.093 188.954 152.662 191.391C150.23 193.828 146.933 195.197 143.494 195.197H79.6436C76.2052 195.197 72.9077 193.828 70.4764 191.391C68.045 188.954 66.6791 185.649 66.679 182.202V17.5206C66.6791 14.0743 68.045 10.7692 70.4764 8.33235C72.9077 5.89548 76.2052 4.52643 79.6436 4.52637H87.3895C87.0089 5.46381 86.8639 6.48063 86.9674 7.48739C87.0709 8.49415 87.4196 9.46 87.9829 10.3C88.5462 11.14 89.3069 11.8283 90.1979 12.3045C91.0889 12.7807 92.083 13.0302 93.0928 13.0309H129.498C130.507 13.0302 131.502 12.7807 132.393 12.3045C133.284 11.8283 134.044 11.1399 134.608 10.3C135.171 9.45999 135.52 8.49415 135.623 7.48739C135.727 6.48063 135.582 5.46381 135.201 4.52637H143.494C146.933 4.52643 150.23 5.89548 152.662 8.33235C155.093 10.7692 156.459 14.0743 156.459 17.5206Z" fill="white"/>
<path d="M83.0472 19.8003C80.7234 19.8003 78.4949 20.7255 76.8517 22.3724C75.2086 24.0193 74.2855 26.2529 74.2855 28.582C74.2855 30.911 75.2085 33.1447 76.8517 34.7916C78.4948 36.4385 80.7234 37.3637 83.0471 37.3637H83.0472C85.3709 37.3637 87.5995 36.4385 89.2427 34.7916C90.8858 33.1447 91.8089 30.9111 91.8089 28.582C91.8089 26.253 90.8858 24.0193 89.2427 22.3724C87.5995 20.7255 85.3709 19.8003 83.0472 19.8003Z" fill="#E6E6E6"/>
<path d="M146.662 35.9914H100.663C100.082 35.9914 99.5252 35.7601 99.1144 35.3484C98.7036 34.9367 98.4729 34.3783 98.4729 33.796C98.4729 33.2138 98.7036 32.6553 99.1144 32.2436C99.5252 31.8319 100.082 31.6006 100.663 31.6006H146.662C147.243 31.6006 147.8 31.8319 148.211 32.2436C148.622 32.6553 148.853 33.2138 148.853 33.796C148.853 34.3783 148.622 34.9367 148.211 35.3484C147.8 35.7601 147.243 35.9914 146.662 35.9914Z" fill="#E6E6E6"/>
<path d="M115.175 26.6609H100.663C100.082 26.6609 99.5252 26.4296 99.1144 26.0179C98.7036 25.6061 98.4729 25.0477 98.4729 24.4654C98.4729 23.8832 98.7036 23.3248 99.1144 22.913C99.5252 22.5013 100.082 22.27 100.663 22.27H115.175C115.756 22.27 116.313 22.5013 116.724 22.913C117.134 23.3248 117.365 23.8832 117.365 24.4654C117.365 25.0477 117.134 25.6061 116.724 26.0179C116.313 26.4296 115.756 26.6609 115.175 26.6609Z" fill="#E6E6E6"/>
<path d="M83.0472 56.5737C80.7234 56.5737 78.4949 57.4989 76.8517 59.1458C75.2086 60.7927 74.2855 63.0264 74.2855 65.3554C74.2855 67.6845 75.2085 69.9181 76.8517 71.565C78.4948 73.2119 80.7234 74.1372 83.0471 74.1372H83.0472C85.3709 74.1372 87.5995 73.212 89.2427 71.5651C90.8858 69.9182 91.8089 67.6845 91.8089 65.3554C91.8089 63.0264 90.8858 60.7927 89.2427 59.1458C87.5995 57.4989 85.3709 56.5737 83.0472 56.5737Z" fill="#E6E6E6"/>
<path d="M146.662 72.7654H100.663C100.082 72.7654 99.5252 72.5341 99.1144 72.1223C98.7036 71.7106 98.4729 71.1522 98.4729 70.5699C98.4729 69.9877 98.7036 69.4293 99.1144 69.0175C99.5252 68.6058 100.082 68.3745 100.663 68.3745H146.662C147.243 68.3745 147.8 68.6058 148.211 69.0175C148.622 69.4293 148.853 69.9877 148.853 70.5699C148.853 71.1522 148.622 71.7106 148.211 72.1223C147.8 72.5341 147.243 72.7654 146.662 72.7654Z" fill="#E6E6E6"/>
<path d="M115.175 63.4348H100.663C100.082 63.4348 99.5252 63.2035 99.1144 62.7918C98.7036 62.3801 98.4729 61.8216 98.4729 61.2394C98.4729 60.6571 98.7036 60.0987 99.1144 59.687C99.5252 59.2752 100.082 59.0439 100.663 59.0439H115.175C115.756 59.0439 116.313 59.2752 116.724 59.687C117.134 60.0987 117.365 60.6571 117.365 61.2394C117.365 61.8216 117.134 62.3801 116.724 62.7918C116.313 63.2035 115.756 63.4348 115.175 63.4348Z" fill="#E6E6E6"/>
<path d="M83.0472 130.121C80.7234 130.121 78.4949 131.046 76.8517 132.693C75.2086 134.34 74.2855 136.573 74.2855 138.902C74.2855 141.231 75.2085 143.465 76.8517 145.112C78.4948 146.759 80.7234 147.684 83.0471 147.684H83.0472C85.3709 147.684 87.5995 146.759 89.2427 145.112C90.8858 143.465 91.8089 141.231 91.8089 138.902C91.8089 136.573 90.8858 134.34 89.2427 132.693C87.5995 131.046 85.3709 130.121 83.0472 130.121Z" fill="#E6E6E6"/>
<path d="M146.662 146.312H100.663C100.082 146.312 99.5252 146.081 99.1144 145.669C98.7036 145.257 98.4729 144.699 98.4729 144.117C98.4729 143.535 98.7036 142.976 99.1144 142.564C99.5252 142.153 100.082 141.921 100.663 141.921H146.662C147.243 141.921 147.8 142.153 148.211 142.564C148.622 142.976 148.853 143.535 148.853 144.117C148.853 144.699 148.622 145.257 148.211 145.669C147.8 146.081 147.243 146.312 146.662 146.312Z" fill="#E6E6E6"/>
<path d="M115.175 136.982H100.663C100.082 136.982 99.5252 136.75 99.1144 136.339C98.7036 135.927 98.4729 135.369 98.4729 134.786C98.4729 134.204 98.7036 133.646 99.1144 133.234C99.5252 132.822 100.082 132.591 100.663 132.591H115.175C115.756 132.591 116.313 132.822 116.724 133.234C117.134 133.646 117.365 134.204 117.365 134.786C117.365 135.369 117.134 135.927 116.724 136.339C116.313 136.75 115.756 136.982 115.175 136.982Z" fill="#E6E6E6"/>
<path d="M83.0472 166.894C80.7234 166.894 78.4949 167.819 76.8517 169.466C75.2086 171.113 74.2855 173.347 74.2855 175.676C74.2855 178.005 75.2085 180.238 76.8517 181.885C78.4948 183.532 80.7234 184.457 83.0471 184.457H83.0472C85.3709 184.457 87.5995 183.532 89.2427 181.885C90.8858 180.238 91.8089 178.005 91.8089 175.676C91.8089 173.347 90.8858 171.113 89.2427 169.466C87.5995 167.819 85.3709 166.894 83.0472 166.894Z" fill="#E6E6E6"/>
<path d="M146.662 183.086H100.663C100.082 183.086 99.5252 182.854 99.1144 182.443C98.7036 182.031 98.4729 181.473 98.4729 180.89C98.4729 180.308 98.7036 179.75 99.1144 179.338C99.5252 178.926 100.082 178.695 100.663 178.695H146.662C147.243 178.695 147.8 178.926 148.211 179.338C148.622 179.75 148.853 180.308 148.853 180.89C148.853 181.473 148.622 182.031 148.211 182.443C147.8 182.854 147.243 183.086 146.662 183.086Z" fill="#E6E6E6"/>
<path d="M115.175 173.755H100.663C100.082 173.755 99.5252 173.524 99.1144 173.112C98.7036 172.7 98.4729 172.142 98.4729 171.56C98.4729 170.977 98.7036 170.419 99.1144 170.007C99.5252 169.596 100.082 169.364 100.663 169.364H115.175C115.756 169.364 116.313 169.596 116.724 170.007C117.134 170.419 117.365 170.977 117.365 171.56C117.365 172.142 117.134 172.7 116.724 173.112C116.313 173.524 115.756 173.755 115.175 173.755Z" fill="#E6E6E6"/>
<path d="M164.413 123.26H58.7251C57.5273 123.259 56.379 122.781 55.532 121.932C54.6851 121.083 54.2087 119.933 54.2073 118.732V84.7029C54.2087 83.5024 54.6851 82.3514 55.532 81.5025C56.379 80.6537 57.5273 80.1762 58.7251 80.1748H164.413C165.611 80.1762 166.759 80.6537 167.606 81.5025C168.453 82.3514 168.929 83.5024 168.931 84.7029V118.732C168.929 119.933 168.453 121.083 167.606 121.932C166.759 122.781 165.611 123.259 164.413 123.26Z" fill="white"/>
<path d="M71.7043 114.266C69.2281 114.266 66.8075 113.53 64.7486 112.151C62.6897 110.772 61.085 108.813 60.1374 106.52C59.1897 104.227 58.9418 101.704 59.4249 99.2694C59.908 96.8352 61.1004 94.5993 62.8513 92.8443C64.6023 91.0894 66.8331 89.8943 69.2618 89.4101C71.6904 88.9259 74.2077 89.1744 76.4954 90.1242C78.7832 91.0739 80.7385 92.6823 82.1142 94.7459C83.4899 96.8095 84.2242 99.2356 84.2242 101.718C84.2204 105.044 82.9002 108.234 80.553 110.586C78.2059 112.939 75.0236 114.262 71.7043 114.266ZM71.7043 89.7178C69.3364 89.7178 67.0216 90.4216 65.0528 91.7401C63.084 93.0587 61.5494 94.9328 60.6433 97.1254C59.7371 99.3181 59.5 101.731 59.962 104.059C60.4239 106.386 61.5642 108.524 63.2386 110.203C64.9129 111.881 67.0462 113.024 69.3686 113.487C71.691 113.95 74.0982 113.712 76.2859 112.804C78.4735 111.896 80.3434 110.358 81.6589 108.384C82.9744 106.411 83.6766 104.091 83.6766 101.718C83.673 98.5361 82.4105 95.486 80.166 93.2364C77.9216 90.9868 74.8784 89.7214 71.7043 89.7178Z" fill="#3F3D56"/>
<path d="M160.618 112.074H96.3261C95.9238 112.074 95.5254 111.995 95.1536 111.841C94.7818 111.687 94.444 111.461 94.1594 111.176C93.8748 110.891 93.649 110.552 93.495 110.18C93.341 109.808 93.2617 109.408 93.2617 109.005C93.2617 108.602 93.341 108.203 93.495 107.83C93.649 107.458 93.8748 107.119 94.1594 106.834C94.444 106.549 94.7818 106.323 95.1536 106.169C95.5254 106.015 95.9238 105.936 96.3261 105.937H160.618C161.021 105.936 161.419 106.015 161.791 106.169C162.163 106.323 162.501 106.549 162.785 106.834C163.07 107.119 163.296 107.458 163.45 107.83C163.604 108.203 163.683 108.602 163.683 109.005C163.683 109.408 163.604 109.808 163.45 110.18C163.296 110.552 163.07 110.891 162.785 111.176C162.501 111.461 162.163 111.687 161.791 111.841C161.419 111.995 161.021 112.074 160.618 112.074Z" fill="#376AED"/>
<path d="M116.609 99.0326H96.3261C95.9238 99.033 95.5254 98.9539 95.1536 98.7998C94.7819 98.6458 94.444 98.4198 94.1594 98.1349C93.8748 97.8499 93.649 97.5115 93.495 97.139C93.341 96.7665 93.2617 96.3673 93.2617 95.964C93.2617 95.5608 93.341 95.1616 93.495 94.7891C93.649 94.4166 93.8748 94.0782 94.1594 93.7932C94.444 93.5083 94.7819 93.2823 95.1536 93.1283C95.5254 92.9742 95.9238 92.8951 96.3261 92.8955H116.609C117.011 92.8951 117.41 92.9742 117.781 93.1283C118.153 93.2823 118.491 93.5083 118.776 93.7932C119.06 94.0782 119.286 94.4166 119.44 94.7891C119.594 95.1616 119.673 95.5608 119.673 95.964C119.673 96.3673 119.594 96.7665 119.44 97.139C119.286 97.5115 119.06 97.8499 118.776 98.1349C118.491 98.4198 118.153 98.6458 117.781 98.7998C117.41 98.9539 117.011 99.033 116.609 99.0326Z" fill="#376AED"/>
<path d="M164.413 123.26H58.7251C57.5273 123.259 56.379 122.781 55.532 121.932C54.6851 121.083 54.2087 119.933 54.2073 118.732V84.7029C54.2087 83.5024 54.6851 82.3514 55.532 81.5025C56.379 80.6537 57.5273 80.1762 58.7251 80.1748H164.413C165.611 80.1762 166.759 80.6537 167.606 81.5025C168.453 82.3514 168.929 83.5024 168.931 84.7029V118.732C168.929 119.933 168.453 121.083 167.606 121.932C166.759 122.781 165.611 123.259 164.413 123.26ZM58.7251 80.4492C57.5999 80.4505 56.5212 80.8991 55.7256 81.6965C54.9299 82.4939 54.4824 83.5751 54.4811 84.7029V118.732C54.4824 119.86 54.9299 120.941 55.7256 121.738C56.5212 122.536 57.5999 122.984 58.7251 122.986H164.413C165.538 122.984 166.617 122.536 167.413 121.738C168.208 120.941 168.656 119.86 168.657 118.732V84.7029C168.656 83.5751 168.208 82.4939 167.413 81.6965C166.617 80.8991 165.538 80.4505 164.413 80.4492H58.7251Z" fill="#3F3D56"/>
<path d="M71.483 107.824C74.3039 107.824 76.5906 105.532 76.5906 102.705C76.5906 99.8774 74.3039 97.5854 71.483 97.5854C68.6622 97.5854 66.3754 99.8774 66.3754 102.705C66.3754 105.532 68.6622 107.824 71.483 107.824Z" fill="#2F2E41"/>
<path d="M67.4963 99.9447C68.3216 99.1175 68.4889 97.9439 67.8699 97.3235C67.2509 96.703 66.08 96.8707 65.2546 97.6979C64.4292 98.5252 64.262 99.6988 64.881 100.319C65.5 100.94 66.6709 100.772 67.4963 99.9447Z" fill="#2F2E41"/>
<path d="M76.8064 98.319C77.1503 97.5121 76.5589 96.4854 75.4855 96.0258C74.4121 95.5662 73.2632 95.8478 72.9193 96.6547C72.5754 97.4616 73.1668 98.4883 74.2402 98.9479C75.3136 99.4074 76.4626 99.1259 76.8064 98.319Z" fill="#2F2E41"/>
<path d="M71.645 108.271C74.039 108.271 75.9797 106.326 75.9797 103.927C75.9797 101.527 74.039 99.582 71.645 99.582C69.251 99.582 67.3102 101.527 67.3102 103.927C67.3102 106.326 69.251 108.271 71.645 108.271Z" fill="#FFB8B8"/>
<path d="M67.0902 101.194C68.0807 101.878 69.2564 102.243 70.4595 102.238C70.0303 102.536 69.5418 102.738 69.0275 102.828C70.627 103.172 72.2802 103.182 73.8834 102.856C74.2398 102.798 74.5837 102.68 74.9 102.506C75.0576 102.418 75.1949 102.297 75.303 102.152C75.4111 102.007 75.4876 101.841 75.5274 101.665C75.634 101.055 75.1597 100.5 74.6669 100.127C73.9123 99.5638 73.0422 99.1758 72.1197 98.991C71.1971 98.8062 70.2451 98.8293 69.3326 99.0586C68.7245 99.1812 68.1712 99.4946 67.7527 99.9534C67.3657 100.433 67.2511 101.172 67.6198 101.666L67.0902 101.194Z" fill="#2F2E41"/>
<path d="M7.66439 140.279C7.53761 139.867 7.50247 139.432 7.56143 139.005C7.6204 138.578 7.77204 138.17 8.00568 137.808C8.23931 137.446 8.54926 137.14 8.91368 136.911C9.27811 136.682 9.68816 136.536 10.1149 136.484L24.1701 120.022L27.4482 123.472L13.4484 139.256C13.4894 139.98 13.2637 140.694 12.8142 141.263C12.3648 141.832 11.7228 142.216 11.0098 142.342C10.2968 142.468 9.56249 142.328 8.94591 141.948C8.32933 141.567 7.87336 140.973 7.66439 140.279Z" fill="#A0616A"/>
<path d="M19.5975 122.592C19.5832 122.416 19.6071 122.238 19.6676 122.071C19.7281 121.904 19.8237 121.752 19.9481 121.626L24.2903 117.213C24.8245 116.479 25.6273 115.988 26.5224 115.847C27.4176 115.706 28.3321 115.926 29.0652 116.46C29.7984 116.994 30.2904 117.797 30.4333 118.694C30.5762 119.591 30.3583 120.508 29.8274 121.244L26.9403 126.748C26.8579 126.905 26.7426 127.042 26.6025 127.151C26.4623 127.259 26.3005 127.336 26.128 127.376C25.9555 127.416 25.7764 127.419 25.6029 127.383C25.4295 127.348 25.2657 127.275 25.1227 127.17L20.0986 123.49C19.9556 123.385 19.8368 123.251 19.7503 123.096C19.6638 122.941 19.6117 122.769 19.5975 122.592Z" fill="white"/>
<path d="M29.7934 112.492C33.5074 112.492 36.5183 109.475 36.5183 105.752C36.5183 102.029 33.5074 99.0117 29.7934 99.0117C26.0793 99.0117 23.0685 102.029 23.0685 105.752C23.0685 109.475 26.0793 112.492 29.7934 112.492Z" fill="#A0616A"/>
<path d="M26.1368 135.914C26.0031 135.814 25.8913 135.688 25.8081 135.544C25.7249 135.399 25.6723 135.239 25.6533 135.073C25.1884 131.178 24.5118 127.311 23.6265 123.489C23.2346 121.772 23.478 119.971 24.3115 118.42C25.1451 116.869 26.512 115.674 28.1583 115.058C29.8047 114.441 31.6184 114.444 33.2624 115.067C34.9064 115.69 36.2689 116.89 37.0967 118.444C39.7414 123.419 39.9434 130.249 39.9075 132.955C39.9035 133.243 39.7984 133.522 39.6106 133.741C39.4228 133.96 39.1642 134.106 38.88 134.153L27.0804 136.144C27.0116 136.155 26.942 136.161 26.8723 136.161C26.6068 136.161 26.3487 136.074 26.1368 135.914Z" fill="#2F2E41"/>
<path d="M51.6113 113.968C51.5777 114.116 51.5558 114.266 51.5458 114.418L39.7839 121.219L36.925 119.569L33.8773 123.568L38.6552 126.981C39.0412 127.257 39.506 127.4 39.9799 127.388C40.4538 127.377 40.9111 127.211 41.2832 126.917L53.4117 117.327C53.9591 117.53 54.5552 117.561 55.1207 117.416C55.6862 117.272 56.1943 116.958 56.5775 116.517C56.9607 116.075 57.2007 115.528 57.2657 114.946C57.3308 114.365 57.2176 113.777 56.9414 113.262C56.6652 112.747 56.2391 112.328 55.7196 112.061C55.2001 111.795 54.6119 111.693 54.0333 111.769C53.4546 111.846 52.913 112.097 52.4803 112.49C52.0477 112.883 51.7446 113.398 51.6113 113.968Z" fill="#A0616A"/>
<path d="M39.3907 121.541L35.5893 126.479C35.4811 126.619 35.344 126.735 35.1873 126.817C35.0306 126.9 34.858 126.948 34.6812 126.958C34.5044 126.967 34.3276 126.939 34.1628 126.874C33.998 126.809 33.8492 126.709 33.7263 126.581L29.4229 122.102C28.7089 121.543 28.2452 120.724 28.1332 119.823C28.0213 118.922 28.2704 118.013 28.8258 117.296C29.3813 116.579 30.1978 116.111 31.0964 115.997C31.9949 115.882 32.9022 116.129 33.6194 116.684L39.0169 119.709C39.1714 119.795 39.3054 119.914 39.4099 120.058C39.5144 120.201 39.5868 120.365 39.6223 120.539C39.6578 120.713 39.6555 120.892 39.6155 121.065C39.5755 121.238 39.4989 121.4 39.3907 121.541H39.3907Z" fill="white"/>
<path d="M45.317 196.612L48.6738 196.612L49.464 183.677L45.3164 183.635L45.317 196.612Z" fill="#A0616A"/>
<path d="M44.4607 195.514L51.0714 195.514H51.0717C51.6249 195.514 52.1727 195.623 52.6839 195.835C53.195 196.047 53.6594 196.358 54.0506 196.75C54.4418 197.142 54.7521 197.608 54.9638 198.12C55.1756 198.633 55.2845 199.182 55.2845 199.736V199.873L44.4609 199.874L44.4607 195.514Z" fill="#2F2E41"/>
<path d="M13.282 196.612L16.6388 196.612L18.2356 183.635L13.2814 183.635L13.282 196.612Z" fill="#A0616A"/>
<path d="M12.4258 195.514L19.0364 195.514H19.0367C19.5899 195.514 20.1378 195.623 20.6489 195.835C21.16 196.047 21.6245 196.358 22.0157 196.75C22.4069 197.142 22.7172 197.608 22.9289 198.12C23.1406 198.633 23.2496 199.182 23.2496 199.736V199.873L12.426 199.874L12.4258 195.514Z" fill="#2F2E41"/>
<path d="M16.9405 189.872L12.7746 189.328C12.6005 189.305 12.4333 189.245 12.2842 189.152C12.1351 189.06 12.0074 188.936 11.9099 188.79C11.8123 188.643 11.7471 188.478 11.7185 188.304C11.6899 188.131 11.6987 187.953 11.7442 187.783L17.821 157.853C18.4251 154.948 18.843 152.006 19.0724 149.047C19.2498 146.64 19.953 143.235 22.2956 140.689C23.2483 139.645 24.1375 138.544 24.9582 137.392L26.7977 134.839L39.0509 132.885L39.0594 133.037C39.5887 142.796 42.1177 152.341 46.4889 161.078C48.4552 165.007 49.5838 169.303 49.8029 173.694L50.4973 187.265C50.506 187.437 50.4787 187.609 50.4173 187.769C50.3559 187.93 50.2616 188.076 50.1406 188.198C50.02 188.321 49.8747 188.417 49.7145 188.48C49.5543 188.542 49.3826 188.57 49.2109 188.561L45.2284 188.38C44.9585 188.367 44.7001 188.266 44.4931 188.092C44.286 187.918 44.1416 187.681 44.0821 187.416L40.7571 172.548C40.7272 172.415 40.6698 172.291 40.5887 172.182L30.1539 158.237C30.0795 158.137 29.9795 158.06 29.8646 158.013C29.7497 157.966 29.6243 157.952 29.5017 157.971C29.3791 157.99 29.2639 158.042 29.1686 158.121C29.0732 158.201 29.0011 158.304 28.9601 158.422L18.2628 189.056C18.1775 189.297 18.0198 189.506 17.8114 189.654C17.6029 189.802 17.3538 189.882 17.0983 189.883C17.0455 189.883 16.9928 189.879 16.9405 189.872Z" fill="#FFA934"/>
<path d="M22.3576 101.074C22.8918 99.4507 23.2861 97.7847 23.5362 96.0941C23.6148 95.1099 23.3633 94.0508 22.6481 93.3717C21.3098 92.1008 19.0359 92.7061 17.6362 93.9089C15.6135 95.6472 14.6046 98.3186 14.2234 100.962C13.8421 103.605 14.0098 106.293 13.9181 108.962C13.8263 111.631 13.4454 114.375 12.0878 116.673C10.7302 118.971 8.21093 120.735 5.55357 120.539C4.48098 120.481 3.46252 120.048 2.67488 119.316C2.28826 118.948 1.99546 118.492 1.82103 117.986C1.6466 117.481 1.59563 116.941 1.67239 116.411C0.314198 118.849 1.0027 122.153 3.02857 124.069C5.05444 125.985 8.17062 126.527 10.8339 125.709C13.4972 124.891 15.6892 122.839 16.9985 120.375C18.3078 117.91 18.7876 115.064 18.718 112.273C18.6647 110.129 18.3011 107.968 18.6625 105.855C19.0239 103.742 20.3434 101.596 22.4241 101.099L22.3576 101.074Z" fill="#2F2E41"/>
<path d="M31.7015 103.852C32.0562 105.04 33.4131 105.772 34.6338 105.572C35.8545 105.371 36.8582 104.363 37.2292 103.18C37.5645 101.972 37.4272 100.682 36.8453 99.5715C36.5247 98.9061 36.0763 98.3106 35.5258 97.8192C34.9752 97.3277 34.3334 96.9498 33.6371 96.7073C32.9368 96.4747 32.1909 96.4141 31.4624 96.5308C30.7339 96.6475 30.044 96.9379 29.4509 97.3777C29.3878 97.1109 29.2548 96.8657 29.0657 96.6675C28.8766 96.4693 28.6382 96.3252 28.3751 96.25C27.8452 96.1069 27.286 96.1152 26.7606 96.2739C25.2466 96.7063 23.9347 97.6629 23.0581 98.9735C22.1927 100.28 21.6202 101.759 21.3801 103.309C20.967 105.633 21.1194 108.172 22.4216 110.139C23.7239 112.106 26.3882 113.268 28.5496 112.33C28.6844 111.639 28.3651 110.944 27.9957 110.346C27.6263 109.747 27.1885 109.164 27.0467 108.475C26.9048 107.786 27.1768 106.943 27.8419 106.718C28.4093 106.525 29.0142 106.837 29.612 106.875C29.9514 106.896 30.2905 106.827 30.5952 106.676C30.9 106.525 31.1596 106.295 31.3481 106.012C31.5366 105.728 31.6473 105.399 31.6691 105.059C31.691 104.719 31.6232 104.379 31.4726 104.073L31.7015 103.852Z" fill="#2F2E41"/>
</svg>
