<svg width="190" height="200" viewBox="0 0 190 200" fill="none" xmlns="http://www.w3.org/2000/svg">
<path d="M152.25 199.496H89.7351C80.3586 199.496 72.7302 191.859 72.7302 182.472V17.0241C72.7302 7.63703 80.3587 0 89.7351 0H152.25C161.627 0 169.255 7.63703 169.255 17.0241C170.419 83.4629 172.403 157.864 169.255 182.472C169.255 191.859 161.627 199.496 152.25 199.496L152.25 199.496Z" fill="#3F3D56"/>
<path d="M170.127 60.8574C169.73 60.8574 169.408 61.1804 169.408 61.5776V84.6241C169.408 85.0213 169.73 85.3443 170.127 85.3443C170.524 85.3443 170.846 85.0213 170.846 84.6241V61.5776C170.846 61.1804 170.524 60.8574 170.127 60.8574Z" fill="#3F3D56"/>
<path d="M167.637 17.0243V182.469C167.637 190.64 161.285 197.323 153.253 197.842H153.249C153.13 197.849 153.012 197.856 152.889 197.86C152.677 197.871 152.465 197.874 152.249 197.874C152.249 197.874 151.458 197.817 150.012 197.709C148.551 197.601 146.426 197.439 143.775 197.226C142.98 197.165 142.142 197.097 141.257 197.025C139.494 196.88 137.559 196.722 135.484 196.542C134.656 196.474 133.8 196.398 132.926 196.322C128.459 195.937 123.455 195.487 118.179 194.976C117.287 194.893 116.387 194.806 115.481 194.716C115.244 194.691 74.3491 184.399 74.3491 182.469V17.0243C74.3491 8.51509 81.2373 1.61914 89.7369 1.61914H98.9235C100.391 1.61914 101.571 2.76426 101.697 4.22988C101.708 4.32711 101.718 4.42432 101.736 4.52156C102.003 5.99438 103.351 7.02066 104.848 7.02066H137.138C138.634 7.02066 139.983 5.99438 140.25 4.52156C140.268 4.42433 140.278 4.32711 140.289 4.22988C140.415 2.76426 141.595 1.61914 143.062 1.61914H152.249C160.749 1.61914 167.637 8.51509 167.637 17.0243H167.637Z" fill="white"/>
<path d="M72.3706 43.5723C71.9739 43.5723 71.6512 43.8953 71.6512 44.2925V50.0541C71.6512 50.4513 71.9739 50.7743 72.3706 50.7743C72.7674 50.7743 73.09 50.4513 73.09 50.0541V44.2925C73.09 43.8953 72.7674 43.5723 72.3706 43.5723Z" fill="#3F3D56"/>
<path d="M72.3706 60.8569C71.9739 60.8569 71.6512 61.1799 71.6512 61.5771V72.7403C71.6512 73.1375 71.9739 73.4605 72.3706 73.4605C72.7674 73.4605 73.09 73.1375 73.09 72.7403V61.5771C73.09 61.1799 72.7674 60.8569 72.3706 60.8569V60.8569Z" fill="#3F3D56"/>
<path d="M72.3706 76.7017C71.9739 76.7017 71.6512 77.0247 71.6512 77.4219V88.585C71.6512 88.9822 71.9739 89.3052 72.3706 89.3052C72.7674 89.3052 73.09 88.9822 73.09 88.585V77.4219C73.09 77.0247 72.7674 76.7017 72.3706 76.7017Z" fill="#3F3D56"/>
<path d="M98.6873 4.14111H84.9011C84.8343 4.14111 84.7802 4.19533 84.7802 4.26222V5.82051C84.7802 5.8874 84.8343 5.94162 84.9011 5.94162H98.6873C98.7541 5.94162 98.8083 5.8874 98.8083 5.82051V4.26222C98.8083 4.19533 98.7541 4.14111 98.6873 4.14111Z" fill="#E6E6E6"/>
<path d="M145.336 5.94185C146.13 5.94185 146.774 5.29695 146.774 4.50144C146.774 3.70593 146.13 3.06104 145.336 3.06104C144.541 3.06104 143.897 3.70593 143.897 4.50144C143.897 5.29695 144.541 5.94185 145.336 5.94185Z" fill="#E6E6E6"/>
<path d="M149.292 5.94185C150.087 5.94185 150.731 5.29695 150.731 4.50144C150.731 3.70593 150.087 3.06104 149.292 3.06104C148.498 3.06104 147.853 3.70593 147.853 4.50144C147.853 5.29695 148.498 5.94185 149.292 5.94185Z" fill="#E6E6E6"/>
<path d="M153.249 5.94185C154.043 5.94185 154.688 5.29695 154.688 4.50144C154.688 3.70593 154.043 3.06104 153.249 3.06104C152.454 3.06104 151.81 3.70593 151.81 4.50144C151.81 5.29695 152.454 5.94185 153.249 5.94185Z" fill="#E6E6E6"/>
<path d="M73.7543 196.484L69.3697 196.484L67.2839 179.552L73.7552 179.553L73.7543 196.484Z" fill="#FFB6B6"/>
<path d="M58.7321 196.385C58.5956 196.615 58.5236 197.358 58.5236 197.625C58.5236 198.448 59.1898 199.115 60.0117 199.115H73.5903C74.151 199.115 74.6055 198.66 74.6055 198.099V197.533C74.6055 197.533 75.2773 195.832 73.8943 193.735C73.8943 193.735 72.1755 195.377 69.6071 192.806L68.8497 191.432L63.3673 195.446L60.3284 195.821C59.6636 195.903 59.0741 195.808 58.7322 196.385H58.7321V196.385H58.7321Z" fill="#2F2E41"/>
<path d="M49.5068 172.967L45.1222 172.953L43.0901 156.015L49.5613 156.036L49.5068 172.967Z" fill="#FFB6B6"/>
<path d="M34.485 172.82C34.3477 173.05 34.2733 173.793 34.2725 174.06C34.2699 174.883 34.934 175.552 35.7559 175.555L49.3344 175.598C49.8951 175.6 50.3511 175.146 50.3529 174.585L50.3547 174.019C50.3547 174.019 51.0318 172.32 49.6555 170.219C49.6555 170.219 47.9314 171.855 45.3712 169.276L44.6182 167.9L39.1231 171.897L36.083 172.261C35.418 172.341 34.8288 172.245 34.485 172.82H34.485V172.82Z" fill="#2F2E41"/>
<path d="M67.3594 93.6958L61.9 94.0862C61.9 94.0862 43.4176 104.606 41.8578 106.949C40.298 109.291 38.1532 112.61 40.103 116.123C42.0528 119.637 40.5688 162.18 40.5688 162.18L49.886 160.07L55.8556 115.558L68.3343 113.801C68.3343 113.801 72.6238 123.066 71.064 130.731C69.5042 138.397 68.7243 143.081 68.7243 143.081L66.7745 188.368L74.3787 188.172L81.2029 146.204L92.9017 113.021L77.6933 95.0622L67.3594 93.6958Z" fill="#2F2E41"/>
<path d="M94.2666 45.6768L82.9577 46.848L81.7879 50.7519L70.869 56.6079L74.3786 81.2031L71.6489 85.4975L72.8188 89.7919C72.8188 89.7919 69.6991 90.1823 70.0891 92.5247L63.0698 93.6958C63.0698 93.6958 72.3797 95.5987 74.3541 104.993C76.3284 114.387 92.7067 115.558 92.7067 115.558L105.575 75.3471L106.745 51.5327L97.7762 49.1903L94.2666 45.6768Z" fill="#E6E6E6"/>
<path d="M88.3066 44.1951C93.1619 44.1951 97.0978 40.2547 97.0978 35.3939C97.0978 30.5332 93.1619 26.5928 88.3066 26.5928C83.4514 26.5928 79.5154 30.5332 79.5154 35.3939C79.5154 40.2547 83.4514 44.1951 88.3066 44.1951Z" fill="#FFB6B6"/>
<path d="M83.7377 43.3344C83.7377 43.3344 75.9385 42.944 76.7184 36.6976C74.788 30.0459 76.4966 25.727 82.5678 24.2049C82.5678 24.2049 84.1276 23.8145 84.5176 23.8145C89.6467 23.8145 92.3168 25.376 92.3168 25.376C92.3168 25.376 91.9268 23.8298 92.3168 24.2125C92.7067 24.5953 93.0967 25.376 93.0967 25.376C93.0967 25.376 96.9963 27.328 96.9963 31.232C96.9963 35.136 96.9963 33.5744 96.9963 33.5744C96.9963 33.5744 96.2164 33.5744 95.4364 31.232C94.6565 28.8896 89.607 30.4512 89.607 30.4512L89.977 31.232L88.8071 30.8416L87.6373 32.0128L86.8573 31.6224C86.8573 31.6224 83.7377 31.6224 84.1276 31.6224C84.5176 31.6224 84.2458 34.2756 84.2458 34.2756L81.3979 37.4784L84.5176 43.3344H83.7377Z" fill="#2F2E41"/>
<path d="M42.1858 89.9299C39.9657 91.143 38.7909 93.273 39.562 94.6874C40.3331 96.1018 42.758 96.2651 44.9782 95.052C45.95 94.521 46.7215 93.8143 47.2172 93.0688L56.5603 87.8105L54.0021 83.4736L45.0632 89.1176C44.1688 89.1317 43.1577 89.3989 42.1858 89.9299H42.1858Z" fill="#FFB6B6"/>
<path d="M73.6938 56.7902C73.6938 56.7902 70.0313 55.3941 68.7694 57.0746C67.5075 58.755 59.1714 79.1458 59.1714 79.1458L46.9407 85.5405L50.3801 91.5366L66.1295 86.2872L76.5206 67.2617L73.6938 56.7902Z" fill="#E6E6E6"/>
<path d="M189.188 123.756V165.138C189.188 168.798 186.215 171.775 182.559 171.775H80.3898C76.7343 171.775 73.7605 168.798 73.7605 165.138V123.756C73.7605 120.096 76.7343 117.119 80.3898 117.119H182.559C186.215 117.119 189.188 120.096 189.188 123.756Z" fill="white"/>
<path d="M189.188 123.756V165.138C189.188 168.798 186.215 171.775 182.559 171.775H80.3898C76.7343 171.775 73.7605 168.798 73.7605 165.138V123.756C73.7605 120.096 76.7343 117.119 80.3898 117.119H182.559C186.215 117.119 189.188 120.096 189.188 123.756ZM182.559 170.994C185.79 170.994 188.409 168.372 188.409 165.138V144.275C188.409 129.708 176.613 117.9 162.063 117.9H80.3898C77.1593 117.9 74.5404 120.522 74.5404 123.756V165.138C74.5404 168.372 77.1593 170.994 80.3898 170.994H182.559Z" fill="#3F3D56"/>
<path d="M119.624 142.121H106.279C105.943 142.121 105.669 142.395 105.669 142.731C105.669 143.068 105.943 143.342 106.279 143.342H119.624C119.96 143.342 120.234 143.068 120.234 142.731C120.234 142.395 119.96 142.121 119.624 142.121Z" fill="#376AED"/>
<path d="M139.902 142.121H126.557C126.221 142.121 125.947 142.395 125.947 142.731C125.947 143.068 126.221 143.342 126.557 143.342H139.902C140.238 143.342 140.512 143.068 140.512 142.731C140.512 142.395 140.238 142.121 139.902 142.121Z" fill="#376AED"/>
<path d="M119.624 148.799H106.279C105.943 148.799 105.669 149.073 105.669 149.41C105.669 149.746 105.943 150.02 106.279 150.02H119.624C119.96 150.02 120.234 149.746 120.234 149.41C120.234 149.073 119.96 148.799 119.624 148.799Z" fill="#376AED"/>
<path d="M139.902 148.799H126.557C126.221 148.799 125.947 149.073 125.947 149.41C125.947 149.746 126.221 150.02 126.557 150.02H139.902C140.238 150.02 140.512 149.746 140.512 149.41C140.512 149.073 140.238 148.799 139.902 148.799Z" fill="#376AED"/>
<path d="M160.79 149.41C160.79 149.073 160.516 148.799 160.18 148.799H146.835C146.498 148.799 146.225 149.073 146.225 149.41C146.225 149.746 146.498 150.02 146.835 150.02H160.18C160.516 150.02 160.79 149.746 160.79 149.41Z" fill="#376AED"/>
<path d="M111.825 136.788C112.161 136.788 112.435 136.514 112.435 136.178C112.435 135.841 112.161 135.567 111.825 135.567H98.4799C98.1435 135.567 97.8698 135.841 97.8698 136.178C97.8698 136.514 98.1435 136.788 98.4799 136.788H111.825Z" fill="#376AED"/>
<path d="M151.124 136.54H164.469C164.806 136.54 165.079 136.266 165.079 135.929C165.079 135.592 164.806 135.318 164.469 135.318H151.124C150.788 135.318 150.514 135.592 150.514 135.929C150.514 136.266 150.788 136.54 151.124 136.54Z" fill="#376AED"/>
<path d="M117.446 136.668H145.113C145.449 136.668 145.723 136.394 145.723 136.058C145.723 135.721 145.449 135.447 145.113 135.447H117.446C117.11 135.447 116.836 135.721 116.836 136.058C116.836 136.394 117.11 136.668 117.446 136.668Z" fill="#376AED"/>
<path d="M128.332 154.866H114.987C114.651 154.866 114.377 155.14 114.377 155.477C114.377 155.814 114.651 156.088 114.987 156.088H128.332C128.668 156.088 128.942 155.814 128.942 155.477C128.942 155.14 128.668 154.866 128.332 154.866Z" fill="#376AED"/>
<path d="M171.43 123.444V164.826C171.43 168.486 168.457 171.463 164.801 171.463H123.465C119.81 171.463 116.836 168.486 116.836 164.826V123.444C116.836 119.784 119.81 116.807 123.465 116.807H164.801C168.457 116.807 171.43 119.784 171.43 123.444Z" fill="white"/>
<path d="M171.43 123.444V164.826C171.43 168.486 168.457 171.463 164.801 171.463H123.465C119.81 171.463 116.836 168.486 116.836 164.826V123.444C116.836 119.784 119.81 116.807 123.465 116.807H164.801C168.457 116.807 171.43 119.784 171.43 123.444ZM162.237 170.682C166.884 170.682 170.651 166.911 170.651 162.259V143.963C170.651 129.396 158.855 117.588 144.305 117.588H123.465C120.235 117.588 117.616 120.21 117.616 123.444V159.052C117.616 165.475 122.817 170.682 129.233 170.682H162.237V170.682H162.237Z" fill="#3F3D56"/>
<path d="M149.636 133.708H136.291C135.955 133.708 135.681 133.434 135.681 133.098C135.681 132.761 135.955 132.487 136.291 132.487H149.636C149.972 132.487 150.246 132.761 150.246 133.098C150.246 133.434 149.972 133.708 149.636 133.708V133.708Z" fill="#376AED"/>
<path d="M149.636 146.733H136.291C135.955 146.733 135.681 146.459 135.681 146.122C135.681 145.786 135.955 145.512 136.291 145.512H149.636C149.972 145.512 150.246 145.786 150.246 146.122C150.246 146.459 149.972 146.733 149.636 146.733V146.733Z" fill="#376AED"/>
<path d="M143.007 164.692H129.662C129.325 164.692 129.052 164.418 129.052 164.081C129.052 163.744 129.326 163.47 129.662 163.47H143.007C143.343 163.47 143.617 163.744 143.617 164.081C143.617 164.418 143.343 164.692 143.007 164.692V164.692Z" fill="#376AED"/>
<path d="M156.797 140.225H129.13C128.794 140.225 128.52 139.951 128.52 139.614C128.52 139.277 128.794 139.003 129.13 139.003H156.797C157.133 139.003 157.407 139.277 157.407 139.614C157.407 139.951 157.133 140.225 156.797 140.225V140.225Z" fill="#376AED"/>
<path d="M163.653 100.513C163.653 87.6035 152.754 80.5019 140.305 77.1384C124.343 72.826 112.653 81.5523 116.956 100.513C117.932 104.81 120.264 109.829 123.151 114.122H146.063C153.717 109.134 163.653 110.533 163.653 100.513H163.653Z" fill="#376AED"/>
<path d="M139.962 124.917C141.265 122.43 142.917 120.635 144.738 119.269H123.279C128.802 127.168 136.126 132.237 139.962 124.917Z" fill="#376AED"/>
<path d="M137.486 86.693C138.863 86.693 139.98 87.8111 139.98 89.1903V94.1849H134.991V89.1903C134.991 87.8111 136.108 86.693 137.486 86.693ZM141.227 94.1849V89.1903C141.227 87.1215 139.552 85.4443 137.486 85.4443C135.419 85.4443 133.744 87.1215 133.744 89.1903V94.1849C132.366 94.1849 131.249 95.303 131.249 96.6822V102.925C131.249 104.305 132.366 105.423 133.744 105.423H141.227C142.605 105.423 143.722 104.305 143.722 102.925V96.6822C143.722 95.303 142.605 94.1849 141.227 94.1849H141.227ZM133.744 95.4336H141.227C141.916 95.4336 142.475 95.9926 142.475 96.6822V102.925C142.475 103.615 141.916 104.174 141.227 104.174H133.744C133.055 104.174 132.497 103.615 132.497 102.925V96.6822C132.497 95.9926 133.055 95.4336 133.744 95.4336Z" fill="white"/>
<path d="M101.838 115.77C101.537 118.285 102.589 120.478 104.187 120.67C105.785 120.861 107.325 118.978 107.625 116.464C107.757 115.364 107.63 114.325 107.311 113.488L108.451 102.819L103.439 102.389L102.846 112.953C102.339 113.69 101.97 114.67 101.838 115.77Z" fill="#FFB6B6"/>
<path d="M103.041 52.1183C103.041 52.1183 108.5 50.5567 109.67 52.8991C110.84 55.2415 113.57 86.083 113.57 86.083L108.305 110.701L102.261 109.117L105.38 84.131L101.091 65.3919L103.041 52.1183Z" fill="#E6E6E6"/>
<path d="M22.8126 127.012C35.4117 127.012 45.6252 116.787 45.6252 104.174C45.6252 91.5605 35.4117 81.3354 22.8126 81.3354C10.2136 81.3354 0 91.5605 0 104.174C0 116.787 10.2136 127.012 22.8126 127.012Z" fill="#FFA934"/>
<path d="M22.8126 93.9499C24.4241 93.9499 25.7305 95.2577 25.7305 96.8711V102.713H19.8947V96.8711C19.8947 95.2577 21.2011 93.9499 22.8126 93.9499ZM27.1895 102.713V96.871C27.1895 94.4511 25.2299 92.4893 22.8126 92.4893C20.3954 92.4893 18.4358 94.4511 18.4358 96.871V102.713C16.8243 102.713 15.5179 104.021 15.5179 105.635V112.938C15.5179 114.551 16.8243 115.859 18.4358 115.859H27.1895C28.801 115.859 30.1073 114.551 30.1073 112.938V105.635C30.1073 104.021 28.801 102.713 27.1895 102.713H27.1895ZM18.4358 104.174H27.1895C27.9952 104.174 28.6484 104.828 28.6484 105.635V112.938C28.6484 113.744 27.9952 114.398 27.1895 114.398H18.4358C17.63 114.398 16.9768 113.744 16.9768 112.938V105.635C16.9768 104.828 17.63 104.174 18.4358 104.174Z" fill="white"/>
</svg>
